<svg width="32" height="32" viewBox="0 0 32 32" fill="none" xmlns="http://www.w3.org/2000/svg">
<g id="Icon" clip-path="url(#clip0_84_313)">
<path id="Vector" d="M24.745 16.0413C28.5824 13.6743 31.1893 9.4928 31.3665 4.69611C31.377 4.40414 31.1371 4.15387 30.8451 4.15387H28.0297C27.8003 4.15387 27.6126 3.96618 27.6126 3.73677V0.8379C27.6126 0.545927 27.3728 0.306093 27.0704 0.31652C22.2841 0.504217 18.1026 3.10069 15.7251 6.93804C13.3581 3.11111 9.17661 0.504217 4.37992 0.31652C4.08794 0.306093 3.83768 0.545927 3.83768 0.8379V3.65335C3.83768 3.88276 3.64998 4.07045 3.42058 4.07045H0.521707C0.229735 4.07045 -0.0100999 4.31029 0.000327676 4.61269C0.188024 9.39895 2.78449 13.5804 6.62185 15.9579C2.79492 18.3354 0.188024 22.5064 0.000327676 27.3031C-0.0100999 27.5951 0.229735 27.8454 0.521707 27.8454H3.33716C3.56656 27.8454 3.75426 28.0331 3.75426 28.2625V31.1718C3.75426 31.4637 3.9941 31.7036 4.2965 31.6931C9.08276 31.5054 13.2642 28.909 15.6417 25.0716C18.0192 28.909 22.2007 31.5159 26.9869 31.6931C27.2789 31.7036 27.5292 31.4637 27.5292 31.1718V28.3563C27.5292 28.1269 27.7169 27.9392 27.9463 27.9392H30.8556C31.1475 27.9392 31.3874 27.6994 31.377 27.397C31.1893 22.6003 28.5824 18.4188 24.745 16.0413ZM15.6834 14.2791C16.6323 14.2791 17.404 15.0507 17.404 15.9996C17.404 16.9485 16.6323 17.7202 15.6834 17.7202C14.7345 17.7202 13.9629 16.9485 13.9629 15.9996C13.9629 15.0507 14.7345 14.2791 15.6834 14.2791ZM27.1746 4.96723C26.7888 9.70135 23.0245 13.497 18.3008 13.9245C18.0505 13.9454 17.8315 13.7368 17.8524 13.4761C18.2382 8.74201 22.0025 4.94637 26.7262 4.51884C26.9765 4.49798 27.1955 4.70654 27.1746 4.96723ZM13.1599 13.8307C8.42582 13.4449 4.63018 9.6805 4.20265 4.9568C4.18179 4.70654 4.39034 4.48756 4.65103 4.50841C9.38516 4.89423 13.1808 8.65859 13.6083 13.3823C13.6292 13.643 13.4102 13.862 13.1599 13.8307ZM4.19222 27.032C4.57804 22.2979 8.3424 18.5022 13.0661 18.0747C13.3164 18.0539 13.5353 18.2624 13.5145 18.5231C13.1287 23.2572 9.36431 27.0529 4.64061 27.4804C4.39034 27.5013 4.17136 27.2927 4.19222 27.032ZM18.2173 18.1686C22.9515 18.5544 26.7471 22.3187 27.1746 27.0424C27.1955 27.2927 26.9869 27.5117 26.7262 27.4908C21.9921 27.105 18.1965 23.3406 17.7689 18.6169C17.7377 18.3563 17.9566 18.1477 18.2173 18.1686Z" fill="white"/>
</g>
<defs>
<clipPath id="clip0_84_313">
<rect width="31.3662" height="31.3662" fill="white" transform="translate(0 0.316895)"/>
</clipPath>
</defs>
</svg>
