<svg width="874" height="234" viewBox="0 0 874 234" fill="none" xmlns="http://www.w3.org/2000/svg">
<path fill-rule="evenodd" clip-rule="evenodd" d="M154.232 225.008V195.759H32.5677V0H0V225.008H154.232ZM694.439 176.049C694.439 181.983 695.501 186.964 697.625 190.991C699.985 194.806 702.581 197.88 705.413 200.211C708.245 202.331 710.841 203.814 713.201 204.662C715.796 205.51 717.33 206.04 717.802 206.252L711.076 232.004C708.245 231.368 705.059 230.202 701.519 228.507C698.215 227.023 694.793 225.116 691.253 222.784C687.713 220.241 684.291 217.379 680.987 214.2C677.683 210.809 674.733 206.994 672.137 202.755H667.889C665.765 204.662 663.169 207.312 660.101 210.703C657.033 214.094 653.021 217.591 648.065 221.194C643.109 224.586 637.209 227.553 630.365 230.096C623.521 232.64 615.261 233.912 605.586 233.912C592.134 233.912 580.216 231.792 569.832 227.553C559.448 223.314 550.716 217.803 543.636 211.021C536.556 204.026 531.128 196.29 527.352 187.812C523.812 179.122 522.042 170.326 522.042 161.424C522.042 153.37 523.576 145.422 526.644 137.579C529.712 129.525 534.55 122.319 541.158 115.96C547.766 109.602 556.262 104.409 566.646 100.382C577.266 96.3546 590.128 94.341 605.231 94.341C614.435 94.341 622.459 95.8247 629.303 98.792C636.383 101.759 642.283 105.045 647.003 108.648C652.667 113.099 657.505 117.974 661.517 123.272H665.411C664.467 116.49 662.697 109.92 660.101 103.561C657.505 96.9904 653.611 91.1617 648.419 86.0749C643.227 80.988 636.501 76.9609 628.241 73.9936C620.217 70.8143 610.187 69.2247 598.151 69.2247C578.328 69.2247 562.516 73.3577 550.716 81.6239L532.662 60.9585C549.654 48.8773 571.484 42.8366 598.151 42.8366C617.267 42.8366 633.079 45.592 645.587 51.1028C658.331 56.4016 668.361 63.502 675.677 72.404C683.229 81.306 688.421 91.4797 691.253 102.925C694.321 114.159 695.855 125.71 695.855 137.579C695.619 143.726 695.383 149.343 695.147 154.429C694.911 158.88 694.675 163.225 694.439 167.465V176.049ZM605.586 207.523C616.913 207.523 626.353 206.04 633.905 203.072C641.457 200.105 647.475 196.396 651.959 191.945C656.443 187.494 659.511 182.725 661.163 177.638C663.051 172.551 663.995 167.994 663.995 163.967C663.995 158.669 662.579 153.476 659.747 148.389C657.151 143.09 653.257 138.427 648.065 134.4C643.109 130.373 636.973 127.088 629.657 124.544C622.341 122.001 614.199 120.729 605.231 120.729C600.747 120.729 595.438 121.365 589.302 122.637C583.166 123.696 577.266 125.816 571.602 128.995C565.938 131.963 561.1 136.096 557.088 141.394C553.312 146.693 551.424 153.37 551.424 161.424C551.424 167.147 552.604 172.763 554.964 178.274C557.324 183.785 560.746 188.766 565.23 193.217C569.714 197.456 575.378 200.953 582.222 203.708C589.066 206.252 596.854 207.523 605.586 207.523ZM832.014 43.1539C842.634 43.1539 851.602 44.6376 858.918 47.6049C866.234 50.5723 869.28 52.2167 874 57.3035L852.406 77.0151C850.204 74.2459 849.87 74.1056 846.574 72.7211C846.339 72.622 846.088 72.5166 845.82 72.4033C842.044 70.4958 837.442 69.542 832.014 69.542C821.394 69.542 811.836 71.7675 803.34 76.2185C794.844 80.4575 787.646 86.1802 781.746 93.3866C775.846 100.381 771.244 108.329 767.94 117.231C764.872 125.921 763.338 134.717 763.338 143.619V224.691H733.957V50.4663H763.338V88.9356H766.17C769.002 83.4249 772.306 78.0201 776.082 72.7213C779.858 67.2105 784.342 62.3356 789.534 58.0966C794.726 53.6456 800.744 50.0424 807.588 47.287C814.668 44.5316 822.81 43.1539 832.014 43.1539ZM471.412 48.2408C463.86 44.8496 454.538 43.1539 443.446 43.1539C434.242 43.1539 426.1 44.5316 419.02 47.287C412.176 50.0424 406.158 53.6456 400.967 58.0966C395.775 62.3356 391.291 67.2105 387.515 72.7213C383.739 78.0201 380.435 83.4249 377.603 88.9356H374.771V50.4663H345.389V224.691H374.771V143.619C374.771 134.717 376.305 125.921 379.373 117.231C382.677 108.329 387.279 100.381 393.179 93.3866C399.079 86.1802 406.276 80.4575 414.772 76.2185C423.268 71.7675 432.826 69.542 443.446 69.542C455.01 69.542 463.034 73.0392 467.518 80.0336C472.002 86.8161 474.244 95.4002 474.244 105.786V224.691H503.626V105.786C503.626 97.0958 502.446 88.9356 500.086 81.3053C497.962 73.6751 494.54 67.1045 489.82 61.5938C485.1 55.8711 478.964 51.4201 471.412 48.2408ZM318.483 50.4625V224.687H288.748V185.9H286.27C283.438 191.411 280.134 196.921 276.358 202.432C272.582 207.943 268.098 212.924 262.906 217.375C257.714 221.614 251.578 225.005 244.498 227.549C237.654 230.304 229.63 231.682 220.426 231.682C209.57 231.682 200.248 230.092 192.461 226.913C184.909 223.733 178.655 219.388 173.699 213.878C168.979 208.155 165.557 201.478 163.433 193.848C161.309 186.218 160.247 177.952 160.247 169.05V50.4625H189.629V169.05C189.629 179.435 191.871 188.125 196.355 195.12C200.838 201.902 208.862 205.294 220.426 205.294C231.046 205.294 240.486 203.174 248.746 198.935C257.242 194.484 264.44 188.761 270.34 181.767C276.476 174.772 281.078 166.93 284.146 158.24C287.45 149.338 289.102 140.436 289.102 131.534V50.4625H318.483Z" fill="#0E0E10"/>
</svg>
