<svg width="40" height="41" viewBox="0 0 40 41" fill="none" xmlns="http://www.w3.org/2000/svg">
<g id="Service Icon">
<path id="Union" fill-rule="evenodd" clip-rule="evenodd" d="M27.3009 7.52326C28.0247 6.95453 29.0725 7.0802 29.6412 7.80395L37.2767 17.5206C37.9584 18.3639 38.3304 19.4157 38.3304 20.5004C38.3304 21.5851 37.9584 22.6369 37.2767 23.4802L29.6412 33.1968C29.0725 33.9206 28.0247 34.0463 27.3009 33.4775C26.5772 32.9088 26.4515 31.861 27.0203 31.1373L34.6636 21.4106L34.6814 21.3883C34.8856 21.1375 34.9971 20.8239 34.9971 20.5004C34.9971 20.1769 34.8856 19.8633 34.6814 19.6125L34.6636 19.5902L27.0203 9.86351C26.4515 9.13976 26.5772 8.09199 27.3009 7.52326ZM13.3304 7.16702V7.16706C14.6274 7.16706 15.8327 7.76098 16.6536 8.7481L16.6539 8.74853L23.9223 17.4952L23.9331 17.5083C24.6211 18.3537 24.9968 19.4104 24.9968 20.5004C24.9968 21.5904 24.6211 22.6471 23.9331 23.4925L23.9223 23.5056L16.6587 32.2465C16.2575 32.7371 15.7534 33.1336 15.182 33.4079C14.6078 33.6835 13.9798 33.8289 13.3429 33.8337L13.3304 33.8338V33.8337C12.0335 33.8337 10.8281 33.2398 10.0073 32.2527L10.0069 32.2523L2.73857 23.5056L2.72776 23.4925C2.03972 22.6471 1.66406 21.5904 1.66406 20.5004C1.66406 19.4104 2.03972 18.3537 2.72776 17.5083L2.73857 17.4952L10.0022 8.75421C10.4033 8.26363 10.9074 7.86716 11.4788 7.5929C12.053 7.31728 12.681 7.17189 13.3179 7.16711L13.3304 7.16702ZM13.3363 10.5004C13.1925 10.5024 13.0509 10.5357 12.9212 10.598C12.7896 10.6612 12.6735 10.7527 12.5813 10.8659L12.5706 10.8789L5.30875 19.6178C5.10731 19.8678 4.9974 20.1792 4.9974 20.5004C4.9974 20.8216 5.10731 21.133 5.30875 21.383L12.5702 30.1214C12.7844 30.379 13.0632 30.4986 13.3245 30.5004C13.4683 30.4983 13.6099 30.4651 13.7396 30.4028C13.8713 30.3396 13.9873 30.2481 14.0795 30.1349L14.0902 30.1219L21.3521 21.383C21.5535 21.133 21.6634 20.8216 21.6634 20.5004C21.6634 20.1792 21.5535 19.8678 21.3521 19.6178L14.0906 10.8794L14.0906 10.8793L14.0902 10.8789C13.8761 10.6216 13.5975 10.5022 13.3363 10.5004ZM22.9771 7.80395C22.4084 7.0802 21.3606 6.95453 20.6369 7.52326C19.9131 8.09199 19.7875 9.13976 20.3562 9.86351L27.9995 19.5902L28.0173 19.6125C28.2215 19.8633 28.333 20.1769 28.333 20.5004C28.333 20.8239 28.2215 21.1375 28.0173 21.3883L27.9995 21.4106L20.3562 31.1373C19.7875 31.861 19.9131 32.9088 20.6369 33.4775C21.3606 34.0463 22.4084 33.9206 22.9771 33.1968L30.6126 23.4802C31.2943 22.6369 31.6664 21.5851 31.6664 20.5004C31.6664 19.4157 31.2943 18.3639 30.6126 17.5206L22.9771 7.80395Z" fill="#999999"/>
</g>
</svg>
