<svg width="40" height="41" viewBox="0 0 40 41" fill="none" xmlns="http://www.w3.org/2000/svg">
<g id="Service Icon">
<path id="Union" fill-rule="evenodd" clip-rule="evenodd" d="M7.15352 12.655C7.46608 12.3424 7.89 12.1668 8.33203 12.1668H21.6654C22.1074 12.1668 22.5313 12.3424 22.8439 12.655C23.1564 12.9675 23.332 13.3915 23.332 13.8335L23.332 17.167V23.8337L23.332 27.1668C23.332 27.6089 23.1564 28.0328 22.8439 28.3453C22.5313 28.6579 22.1074 28.8335 21.6654 28.8335H8.33203C7.89 28.8335 7.46608 28.6579 7.15352 28.3453C6.84096 28.0328 6.66536 27.6089 6.66536 27.1668V13.8335C6.66536 13.3915 6.84096 12.9675 7.15352 12.655ZM26.6654 26.5302V27.1668C26.6654 28.4929 26.1386 29.7647 25.2009 30.7024C24.2632 31.64 22.9914 32.1668 21.6654 32.1668H8.33203C7.00595 32.1668 5.73418 31.64 4.7965 30.7024C3.85882 29.7647 3.33203 28.4929 3.33203 27.1668V13.8335C3.33203 12.5074 3.85881 11.2356 4.7965 10.298C5.73418 9.36028 7.00595 8.8335 8.33203 8.8335H21.6654C22.9914 8.8335 24.2632 9.36028 25.2009 10.298C26.1386 11.2356 26.6654 12.5074 26.6654 13.8335V14.4706L31.8418 11.8829L31.842 11.8828C32.3501 11.6289 32.9146 11.5091 33.482 11.5346C34.0494 11.5602 34.6009 11.7303 35.084 12.0288C35.5672 12.3273 35.9661 12.7444 36.2429 13.2404C36.5196 13.7364 36.6651 14.2948 36.6654 14.8628V14.8637V26.137V26.1379C36.6651 26.7059 36.5196 27.2644 36.2429 27.7603C35.9661 28.2563 35.5672 28.6734 35.084 28.9719C34.6009 29.2704 34.0494 29.4405 33.482 29.4661C32.9146 29.4916 32.3501 29.3718 31.842 29.1179L31.8418 29.1178L26.6654 26.5302ZM26.6654 22.8035L33.332 26.1361L33.332 14.8646L26.6654 18.1972V22.8035Z" fill="#999999"/>
</g>
</svg>
