<svg width="40" height="41" viewBox="0 0 40 41" fill="none" xmlns="http://www.w3.org/2000/svg">
<g id="Service Icon">
<path id="Union" fill-rule="evenodd" clip-rule="evenodd" d="M13.3346 3.8335C14.2551 3.8335 15.0013 4.57969 15.0013 5.50016V7.16683C15.0013 8.0873 14.2551 8.8335 13.3346 8.8335C12.4142 8.8335 11.668 8.0873 11.668 7.16683V5.50016C11.668 4.57969 12.4142 3.8335 13.3346 3.8335ZM12.6443 13.1428C13.2694 12.5177 14.1172 12.1665 15.0013 12.1665H25.0013C25.8854 12.1665 26.7332 12.5177 27.3583 13.1428C27.9834 13.7679 28.3346 14.6158 28.3346 15.4998V25.4998C28.3346 26.3839 27.9834 27.2317 27.3583 27.8569C26.7332 28.482 25.8854 28.8332 25.0013 28.8332H15.0013C14.1172 28.8332 13.2694 28.482 12.6443 27.8569C12.0192 27.2317 11.668 26.3839 11.668 25.4998V15.4998C11.668 14.6158 12.0192 13.7679 12.6443 13.1428ZM25.0013 15.4998H15.0013V25.4998H25.0013V15.4998ZM3.33203 13.8337C3.33203 12.9132 4.07822 12.167 4.9987 12.167H6.66536C7.58584 12.167 8.33203 12.9132 8.33203 13.8337C8.33203 14.7541 7.58584 15.5003 6.66536 15.5003H4.9987C4.07822 15.5003 3.33203 14.7541 3.33203 13.8337ZM4.9987 25.5C4.07822 25.5 3.33203 26.2462 3.33203 27.1667C3.33203 28.0871 4.07822 28.8333 4.9987 28.8333H6.66536C7.58584 28.8333 8.33203 28.0871 8.33203 27.1667C8.33203 26.2462 7.58584 25.5 6.66536 25.5H4.9987ZM28.3294 5.50016C28.3294 4.57969 27.5832 3.8335 26.6628 3.8335C25.7423 3.8335 24.9961 4.57969 24.9961 5.50016V7.16683C24.9961 8.0873 25.7423 8.8335 26.6628 8.8335C27.5832 8.8335 28.3294 8.0873 28.3294 7.16683V5.50016ZM31.668 13.8332C31.668 12.9127 32.4142 12.1665 33.3346 12.1665H35.0013C35.9218 12.1665 36.668 12.9127 36.668 13.8332C36.668 14.7536 35.9218 15.4998 35.0013 15.4998H33.3346C32.4142 15.4998 31.668 14.7536 31.668 13.8332ZM33.3346 25.5005C32.4142 25.5005 31.668 26.2467 31.668 27.1672C31.668 28.0876 32.4142 28.8338 33.3346 28.8338H35.0013C35.9218 28.8338 36.668 28.0876 36.668 27.1672C36.668 26.2467 35.9218 25.5005 35.0013 25.5005H33.3346ZM13.3346 32.1665C14.2551 32.1665 15.0013 32.9127 15.0013 33.8332V35.4998C15.0013 36.4203 14.2551 37.1665 13.3346 37.1665C12.4142 37.1665 11.668 36.4203 11.668 35.4998V33.8332C11.668 32.9127 12.4142 32.1665 13.3346 32.1665ZM28.3294 33.8332C28.3294 32.9127 27.5832 32.1665 26.6628 32.1665C25.7423 32.1665 24.9961 32.9127 24.9961 33.8332V35.4998C24.9961 36.4203 25.7423 37.1665 26.6628 37.1665C27.5832 37.1665 28.3294 36.4203 28.3294 35.4998V33.8332Z" fill="#999999"/>
</g>
</svg>
