<svg width="105" height="34" viewBox="0 0 105 34" fill="none" xmlns="http://www.w3.org/2000/svg">
<g opacity="0.5">
<mask id="mask0_136_389" style="mask-type:luminance" maskUnits="userSpaceOnUse" x="3" y="6" width="23" height="22">
<path d="M25.9201 6.71289H3.21094V27.9204H25.9201V6.71289Z" fill="white"/>
</mask>
<g mask="url(#mask0_136_389)">
<path fill-rule="evenodd" clip-rule="evenodd" d="M10.9971 6.97705C9.71604 6.97705 8.48756 7.44069 7.58176 8.26597L3.21094 12.2483V14.071C3.21094 15.3589 3.81809 16.5174 4.78581 17.3222C3.81809 18.127 3.21094 19.2856 3.21094 20.5734V22.3962L7.58176 26.3785C8.48756 27.2038 9.71604 27.6674 10.9971 27.6674C12.4106 27.6674 13.6822 27.1142 14.5655 26.2325C15.4487 27.1142 16.7204 27.6674 18.1338 27.6674C19.4149 27.6674 20.6433 27.2038 21.5492 26.3785L25.9201 22.3962V20.5734C25.9201 19.2856 25.3129 18.127 24.3451 17.3222C25.3129 16.5174 25.9201 15.3589 25.9201 14.071V12.2483L21.5492 8.26597C20.6433 7.44069 19.4149 6.97705 18.1338 6.97705C16.7204 6.97705 15.4487 7.53022 14.5655 8.41193C13.6822 7.53022 12.4106 6.97705 10.9971 6.97705ZM17.8349 17.3222C17.7804 17.2769 17.727 17.2304 17.6747 17.1827L14.5655 14.3499L11.4562 17.1827C11.4039 17.2304 11.3505 17.2769 11.296 17.3222C11.3505 17.3675 11.4039 17.414 11.4562 17.4617L14.5655 20.2945L17.6747 17.4617C17.727 17.414 17.7804 17.3675 17.8349 17.3222ZM15.8271 22.3962V23.2667C15.8271 24.4275 16.8599 25.3685 18.1338 25.3685C18.7457 25.3685 19.3324 25.147 19.765 24.7529L23.3968 21.4439V20.5734C23.3968 19.4126 22.364 18.4716 21.09 18.4716C20.4783 18.4716 19.8915 18.6931 19.4589 19.0872L15.8271 22.3962ZM13.3039 22.3962L9.67203 19.0872C9.23947 18.6931 8.65274 18.4716 8.04095 18.4716C6.76695 18.4716 5.73416 19.4126 5.73416 20.5734V21.4439L9.36593 24.7529C9.79858 25.147 10.3853 25.3685 10.9971 25.3685C12.271 25.3685 13.3039 24.4275 13.3039 23.2667V22.3962ZM13.3039 11.3777V12.2483L9.67203 15.5572C9.23947 15.9513 8.65274 16.1728 8.04095 16.1728C6.76695 16.1728 5.73416 15.2317 5.73416 14.071V13.2005L9.36593 9.89156C9.79858 9.49739 10.3853 9.27596 10.9971 9.27596C12.271 9.27596 13.3039 10.217 13.3039 11.3777ZM19.4589 15.5572L15.8271 12.2483V11.3777C15.8271 10.217 16.8599 9.27596 18.1338 9.27596C18.7457 9.27596 19.3324 9.49739 19.765 9.89156L23.3968 13.2005V14.071C23.3968 15.2317 22.364 16.1728 21.09 16.1728C20.4783 16.1728 19.8915 15.9513 19.4589 15.5572Z" fill="white"/>
</g>
<path d="M92.526 25.7848C90.2672 25.7848 88.5361 25.2967 87.3326 24.3204C86.1291 23.3441 85.5273 21.9172 85.5273 20.0397V15.2183C85.5273 13.3407 86.1291 11.9139 87.3326 10.9375C88.5361 9.96127 90.2672 9.47314 92.526 9.47314C94.7845 9.47314 96.5076 9.96127 97.6944 10.9375C98.8977 11.9139 99.4999 13.3407 99.4999 15.2183V20.0397C99.4999 21.9172 98.8977 23.3441 97.6944 24.3204C96.5076 25.2967 94.7845 25.7848 92.526 25.7848ZM92.526 23.6896C93.8282 23.6896 94.8256 23.3816 95.5184 22.7658C96.2266 22.135 96.5817 21.2263 96.5817 20.0397V15.2183C96.5817 14.0317 96.2266 13.1305 95.5184 12.5146C94.8256 11.8839 93.8282 11.5684 92.526 11.5684C91.2069 11.5684 90.193 11.8839 89.484 12.5146C88.7916 13.1305 88.4454 14.0317 88.4454 15.2183V20.0397C88.4454 21.2263 88.7916 22.135 89.484 22.7658C90.193 23.3816 91.2069 23.6896 92.526 23.6896Z" fill="white"/>
<path d="M81.2949 9.74365V22.2478C81.2949 23.3292 81.0477 24.1478 80.5531 24.7036C80.0749 25.2443 79.3084 25.5147 78.2533 25.5147H76.2007L70.0925 13.9117V25.5147H67.3477V9.74365H70.686L77.7339 23.2391H77.8576C78.1213 23.2391 78.3027 23.1415 78.4016 22.9462C78.5005 22.736 78.5499 22.3755 78.5499 21.8648V9.74365H81.2949Z" fill="white"/>
<path d="M59.3754 21.369H52.2782L50.918 25.5145H48L52.3276 12.74C52.6079 11.8989 52.8964 11.2455 53.1932 10.7799C53.5064 10.3143 53.869 9.98378 54.2812 9.78853C54.6933 9.57827 55.2127 9.47314 55.8392 9.47314C56.4492 9.47314 56.9603 9.57827 57.3724 9.78853C57.7846 9.98378 58.1472 10.3143 58.4604 10.7799C58.7737 11.2455 59.0704 11.8989 59.3507 12.74L63.6536 25.5145H60.7356L59.3754 21.369ZM58.7325 19.3863L56.581 12.785C56.4821 12.4846 56.375 12.2669 56.2596 12.1316C56.1607 11.9965 56.0205 11.9289 55.8392 11.9289C55.6578 11.9289 55.5094 11.9965 55.394 12.1316C55.2786 12.2669 55.1715 12.4846 55.0725 12.785L52.9211 19.3863H58.7325Z" fill="white"/>
<path d="M40.1475 11.8389H34.7812V9.74365H48.4071V11.8389H43.0655V25.5147H40.1475V11.8389Z" fill="white"/>
</g>
</svg>
