<svg width="31" height="31" viewBox="0 0 31 31" fill="none" xmlns="http://www.w3.org/2000/svg">
<g clip-path="url(#clip0_2013_122)">
<path d="M15.5 12.9165C15.5 10.8611 14.6835 8.88983 13.2301 7.43643C11.7767 5.98302 9.80543 5.1665 7.75 5.1665H3.875V7.74984C3.875 9.80527 4.69152 11.7765 6.14492 13.2299C7.59833 14.6833 9.56957 15.4998 11.625 15.4998H15.5" stroke="#999999" stroke-width="2.58333" stroke-linecap="round" stroke-linejoin="round"/>
<path d="M15.5 18.0837C15.5 16.0283 16.3165 14.0571 17.7699 12.6037C19.2233 11.1503 21.1946 10.3337 23.25 10.3337H27.125V11.6254C27.125 13.6808 26.3085 15.6521 24.8551 17.1055C23.4017 18.5589 21.4304 19.3754 19.375 19.3754H15.5" stroke="#999999" stroke-width="2.58333" stroke-linecap="round" stroke-linejoin="round"/>
<path d="M15.5 25.8332V12.9165" stroke="#999999" stroke-width="2.58333" stroke-linecap="round" stroke-linejoin="round"/>
</g>
<defs>
<clipPath id="clip0_2013_122">
<rect width="31" height="31" fill="white"/>
</clipPath>
</defs>
</svg>
