<svg xmlns="http://www.w3.org/2000/svg" width="167" height="67" fill="none"><g fill="#fff" clip-path="url(#a)" opacity=".5"><path d="M81.507 32.428c.545-1.015 1.048-1.903 1.51-2.58.377-.55.713-.634 1.006-.254.629.762.964 2.58-.042 4.695-.922 1.903-3.019 5.075-4.025 7.316-1.049 2.369-1.09 4.187.335 4.103 1.72-.085 4.026-2.96 5.493-5.879.21-.38.503-.423.67-.042.169.38.169 1.438-.376 2.622-1.09 2.326-3.732 4.652-6.038 4.525-2.265-.127-3.439-1.48-3.439-3.468-1.341 1.734-3.228 3.299-5.24 3.299-3.9 0-4.697-5.371-1.217-10.489 3.396-4.99 6.709-6.893 8.805-6.893 1.803 0 2.642 1.396 2.558 3.045zm-3.648 6.555c2.642-4.652 3.02-7.274 1.803-7.4-1.342-.128-4.403 2.621-6.709 6.385-2.222 3.637-2.767 7.359-1.132 7.401 1.72.042 3.9-2.664 6.038-6.386zm-21.09 3.765c-1.468 1.988-3.69 4.145-6.038 3.975-2.977-.211-3.061-3.34-2.139-6.132.923-2.791 3.061-6.936 5.787-10.784.335-.466.754-.423 1.09-.043.922 1.396.713 3.3-.797 5.71-1.551 2.495-2.39 4.187-3.27 6.217-.881 2.072-.755 3.594.21 3.679 1.634.127 3.94-2.834 6.205-6.513 2.642-4.314 3.857-7.232 5.2-9.05.418-.592.712-.677 1.047-.254.63.761.965 2.622-.041 4.737-.923 1.903-3.02 5.075-3.984 7.232-1.09 2.41-.922 4.186.587 4.102 1.761-.085 3.9-2.876 5.535-5.837.21-.38.587-.422.755-.042.167.339.21 1.48-.378 2.665-1.216 2.368-3.815 4.525-6.29 4.525-2.725 0-3.815-1.734-3.48-4.187zM36.873 33.74c1.886-2.03 4.738-4.357 6.121-4.145 1.384.211 2.684 2.283 1.636 4.483-.88 1.86-2.936 4.99-3.9 7.19-1.09 2.452-.838 4.44.671 4.355 1.72-.084 3.774-2.876 5.367-5.836.21-.38.503-.38.713-.042.293.465.21 1.438-.377 2.664-1.133 2.368-3.774 4.525-6.206 4.525-3.564 0-4.403-2.622-3.187-6.301 1.384-4.145 5.074-8.628 4.319-8.966-.42-.17-2.851 1.015-5.535 3.975-2.474 2.707-4.319 6.767-6.122 10.742-.167.38-.419.55-.796.17-.839-.846-1.09-2.242-.42-4.357.839-2.664 4.068-8.542 6.71-12.476.293-.465.628-.422.88 0 .629 1.058.587 2.496.126 4.018zm-7.836-6.979c.545 1.1.251 2.242-.294 2.834-.545.592-1.719.465-2.348-.634-.67-1.142-.46-2.411.21-3.13.67-.72 1.887-.212 2.432.93zm-6.835 20.047c-3.186 0-3.983-2.707-2.81-6.175 1.05-3.087 3.817-8.078 5.368-10.277.377-.507.67-.634 1.006-.254.63.677.965 2.496-.042 4.61-.88 1.861-2.641 4.737-3.522 6.851-1.006 2.453-.922 4.103.42 4.018 1.886-.084 4.192-2.876 5.45-5.794.21-.38.504-.338.671 0 .336.677.21 1.565-.293 2.622-1.258 2.622-3.9 4.399-6.248 4.399zM6.281 37.292c-1.467 2.833-2.935 6.005-4.319 9.262-.167.38-.419.465-.67.127-.63-.889-.965-2.115-.21-4.653C2.13 38.434 9.342 24.097 11.9 20.502c.377-.508.67-.465 1.006.085.545.972.755 3.002-.964 6.174-1.09 1.988-2.474 4.483-3.984 7.317 5.493-4.145 11.364-9.432 15.347-13.788.294-.338.629-.296.797.085.251.93.21 2.368-1.3 4.44-1.887 2.58-7.59 7.74-13.25 11.758 1.342 2.157 2.474 4.102 2.977 5.286 1.006 2.41.629 3.891 0 4.695-.252.296-.545.296-.755-.085-1.593-3.13-3.438-6.175-5.493-9.177z"/></g><defs><clipPath id="a"><path fill="#fff" d="M0 20h87v27H0z"/></clipPath></defs></svg>