<svg width="105" height="34" viewBox="0 0 105 34" fill="none" xmlns="http://www.w3.org/2000/svg">
<g opacity="0.5">
<path d="M21.2498 16.1459C20.9895 16.4221 20.7902 16.7554 20.666 17.1222C20.5418 17.489 20.4959 17.8801 20.5313 18.2677L20.519 18.2547C20.5555 18.711 20.4972 19.1702 20.348 19.6003C20.1989 20.0303 19.9626 20.4209 19.6557 20.7446C19.3486 21.0684 18.9784 21.3177 18.5706 21.4749C18.1629 21.6322 17.7274 21.6937 17.2949 21.6552L17.3073 21.6683C16.7898 21.6175 16.2701 21.7362 15.8189 22.0084C15.3677 22.2806 15.0071 22.6929 14.7863 23.1891C14.5655 23.6853 14.4951 24.2413 14.5848 24.7813C14.6746 25.3212 14.92 25.8188 15.2876 26.2062C15.6553 26.5936 16.1273 26.8521 16.6393 26.9462C17.1513 27.0403 17.6784 26.9656 18.1487 26.7323C18.619 26.4988 19.0095 26.1182 19.2672 25.6421C19.5248 25.166 19.6369 24.6177 19.5883 24.072L19.6013 24.085C19.5648 23.6288 19.6231 23.1695 19.7722 22.7394C19.9213 22.3094 20.1577 21.9188 20.4647 21.5951C20.7717 21.2713 21.142 21.022 21.5497 20.8648C21.9575 20.7075 22.3928 20.6459 22.8255 20.6844L22.8124 20.6714C23.2351 20.7115 23.6606 20.6384 24.0494 20.4589C24.4382 20.2794 24.7778 19.9992 25.0366 19.6444C25.2954 19.2897 25.4652 18.8717 25.53 18.4294C25.5949 17.9869 25.5529 17.5344 25.4078 17.1137C25.2628 16.693 25.0193 16.3178 24.7001 16.0227C24.3809 15.7276 23.9963 15.5223 23.5819 15.4258C23.1674 15.3293 22.7366 15.3447 22.3292 15.4705C21.9219 15.5964 21.5514 15.8287 21.2519 16.1459H21.2498Z" fill="white"/>
<path d="M16.1809 19.9585L16.1679 19.9454C16.5355 19.9844 16.9069 19.9369 17.255 19.806C17.6031 19.6752 17.9193 19.4644 18.1808 19.189C18.4421 18.9134 18.6423 18.58 18.7665 18.213C18.8909 17.8459 18.9362 17.4544 18.8995 17.0665L18.9125 17.0795C18.876 16.6232 18.9344 16.1641 19.0834 15.7339C19.2325 15.3039 19.4689 14.9134 19.7758 14.5895C20.0829 14.2658 20.4532 14.0165 20.8609 13.8593C21.2687 13.702 21.704 13.6405 22.1367 13.679L22.1236 13.666C22.6411 13.7172 23.161 13.5988 23.6124 13.327C24.0639 13.0551 24.4248 12.6431 24.646 12.1468C24.8671 11.6507 24.9378 11.0947 24.8484 10.5546C24.7589 10.0145 24.5137 9.51672 24.1461 9.12905C23.7785 8.74138 23.3066 8.48272 22.7945 8.38838C22.2825 8.29404 21.7553 8.36859 21.2849 8.60188C20.8145 8.83516 20.4238 9.21581 20.166 9.69192C19.9082 10.168 19.7959 10.7164 19.8446 11.2623L19.8323 11.2485C19.8689 11.7048 19.8106 12.1641 19.6615 12.5942C19.5125 13.0243 19.2762 13.4149 18.9692 13.7387C18.6622 14.0625 18.2918 14.3118 17.884 14.469C17.4762 14.6262 17.0408 14.6876 16.6081 14.649L16.6205 14.6628C16.2528 14.6237 15.8815 14.6713 15.5334 14.8022C15.1852 14.933 14.869 15.1438 14.6076 15.4192C14.3462 15.6948 14.1462 16.0281 14.0218 16.3952C13.8976 16.7623 13.8521 17.1538 13.8889 17.5417L13.8765 17.5287C13.9129 17.9849 13.8545 18.4441 13.7054 18.8741C13.5562 19.3041 13.3199 19.6946 13.013 20.0184C12.706 20.3421 12.3358 20.5913 11.928 20.7487C11.5203 20.906 11.085 20.9676 10.6524 20.9292L10.6648 20.9423C10.1473 20.8909 9.62734 21.0093 9.17593 21.2812C8.72453 21.5531 8.36362 21.9652 8.14245 22.4613C7.92127 22.9575 7.85058 23.5135 7.94003 24.0536C8.02948 24.5937 8.27471 25.0915 8.64227 25.4792C9.00983 25.8668 9.48183 26.1255 9.99388 26.2198C10.5059 26.3141 11.0331 26.2396 11.5035 26.0063C11.9739 25.7731 12.3646 25.3924 12.6224 24.9163C12.8802 24.4401 12.9924 23.8918 12.9438 23.346L12.9568 23.359C12.9203 22.9027 12.9787 22.4435 13.1278 22.0134C13.2768 21.5834 13.5132 21.1928 13.8202 20.869C14.1272 20.5452 14.4975 20.296 14.9052 20.1387C15.3129 19.9815 15.7483 19.9199 16.1809 19.9585Z" fill="white"/>
<path d="M11.5839 18.5049C11.8442 18.2287 12.0435 17.8953 12.1676 17.5285C12.2917 17.1618 12.3374 16.7706 12.3016 16.3829L12.3146 16.396C12.2781 15.9396 12.3365 15.4802 12.4856 15.0501C12.6348 14.6199 12.8713 14.2293 13.1785 13.9055C13.4856 13.5816 13.8561 13.3324 14.2639 13.1753C14.6719 13.0181 15.1074 12.9567 15.5401 12.9955L15.5271 12.9824C16.0444 13.0336 16.5642 12.9151 17.0154 12.6433C17.4666 12.3715 17.8272 11.9595 18.0483 11.4635C18.2694 10.9675 18.34 10.4117 18.2505 9.87172C18.1611 9.33187 17.9159 8.83424 17.5485 8.44671C17.1811 8.05917 16.7092 7.8006 16.1974 7.70627C15.6856 7.61192 15.1585 7.68641 14.6883 7.91955C14.218 8.15269 13.8274 8.53315 13.5697 9.00903C13.3119 9.48492 13.1996 10.0331 13.2481 10.5787L13.2357 10.5657C13.2723 11.022 13.2139 11.4812 13.0648 11.9112C12.9156 12.3413 12.6794 12.7319 12.3724 13.0557C12.0654 13.3795 11.6951 13.6287 11.2874 13.7859C10.8796 13.9432 10.4443 14.0048 10.0116 13.9662L10.024 13.9792C9.60129 13.9393 9.17585 14.0125 8.7871 14.1921C8.39836 14.3717 8.05888 14.6519 7.80013 15.0067C7.54139 15.3615 7.37175 15.7795 7.30693 16.2219C7.24211 16.6643 7.2842 17.1168 7.42931 17.5373C7.57443 17.9581 7.81787 18.3333 8.13707 18.6282C8.45627 18.9233 8.84091 19.1285 9.25534 19.225C9.66978 19.3215 10.1006 19.306 10.5079 19.1802C10.9152 19.0543 11.2857 18.822 11.5852 18.5049H11.5839Z" fill="white"/>
<path d="M95.306 12.1221C95.0342 12.1221 94.8087 12.1011 94.6304 12.0592C94.4577 12.0172 94.315 11.9438 94.2023 11.8388C94.096 11.7339 94.0204 11.5905 93.9733 11.4087C93.934 11.2268 93.9141 10.9925 93.9141 10.7057C93.9141 10.4189 93.934 10.1846 93.9733 10.0028C94.0204 9.81387 94.096 9.66351 94.2023 9.55159C94.315 9.43967 94.4577 9.36273 94.6304 9.32076C94.8087 9.2788 95.0342 9.25781 95.306 9.25781C95.5786 9.25781 95.8004 9.2788 95.9724 9.32076C96.1515 9.36273 96.2942 9.43967 96.4005 9.55159C96.5068 9.66351 96.5795 9.81387 96.6195 10.0028C96.6587 10.1846 96.6787 10.4189 96.6787 10.7057C96.6787 10.9925 96.6587 11.2268 96.6195 11.4087C96.5795 11.5905 96.5068 11.7339 96.4005 11.8388C96.2942 11.9438 96.1515 12.0172 95.9724 12.0592C95.8004 12.1011 95.5786 12.1221 95.306 12.1221ZM94.1231 14.0003H96.4896V25.0694H94.1231V14.0003Z" fill="white"/>
<path d="M81.5508 14H83.908V21.5438C83.908 21.8376 83.9245 22.0859 83.9573 22.2887C83.9972 22.4916 84.0771 22.6595 84.1963 22.7923C84.3154 22.9182 84.4881 23.0127 84.7135 23.0756C84.939 23.1316 85.2408 23.1595 85.6182 23.1595C86.0163 23.1595 86.3773 23.1386 86.7027 23.0966C87.0273 23.0477 87.3062 22.9952 87.5381 22.9392C87.8099 22.8693 88.0554 22.7923 88.2737 22.7084V14H90.6309V25.0691H88.9008L88.6219 24.2508C88.2509 24.4676 87.8499 24.6599 87.419 24.8278C87.0473 24.9678 86.6163 25.0971 86.1255 25.2161C85.6417 25.335 85.1281 25.3944 84.5837 25.3944C83.5563 25.3944 82.7936 25.1076 82.2963 24.534C81.7991 23.9535 81.5508 23.0512 81.5508 21.8271V14Z" fill="white"/>
<path d="M70.7539 22.9391C71.0456 23.009 71.3706 23.072 71.7286 23.128C72.0336 23.1769 72.3916 23.2189 72.8027 23.2539C73.2205 23.2888 73.678 23.3063 74.1753 23.3063C74.719 23.3063 75.15 23.2853 75.4683 23.2433C75.7866 23.2014 76.0252 23.1314 76.1844 23.0335C76.3501 22.9286 76.4566 22.7887 76.5029 22.6138C76.5493 22.439 76.5722 22.2186 76.5722 21.9529C76.5722 21.813 76.5622 21.687 76.5422 21.5751C76.5293 21.4562 76.4894 21.3513 76.423 21.2604C76.3634 21.1625 76.2706 21.082 76.1446 21.0191C76.0252 20.9491 75.8628 20.8966 75.6572 20.8617L73.4592 20.4315C72.9553 20.3406 72.5309 20.2181 72.1861 20.0643C71.8414 19.9104 71.5628 19.7075 71.3506 19.4557C71.1451 19.1969 70.9959 18.8822 70.9031 18.5114C70.8169 18.1337 70.7738 17.6756 70.7738 17.137C70.7738 15.9759 71.1385 15.112 71.8678 14.5454C72.6038 13.9718 73.6515 13.6851 75.0108 13.6851C75.4882 13.6851 75.9258 13.7165 76.3237 13.7795C76.7284 13.8354 77.0794 13.9019 77.3776 13.9788C77.723 14.0628 78.0376 14.1572 78.323 14.2621V16.0458C78.0048 15.9898 77.673 15.9409 77.3284 15.8989C77.0295 15.8639 76.6949 15.829 76.3237 15.794C75.9589 15.759 75.5877 15.7415 75.2097 15.7415C74.7787 15.7415 74.4207 15.7625 74.1356 15.8045C73.8504 15.8394 73.6249 15.9024 73.4592 15.9933C73.2935 16.0842 73.1774 16.2032 73.1111 16.3501C73.0448 16.4899 73.0116 16.6683 73.0116 16.8851C73.0116 17.053 73.0249 17.2034 73.0514 17.3363C73.0779 17.4692 73.1343 17.5881 73.2205 17.693C73.3067 17.7979 73.426 17.8889 73.5786 17.9658C73.731 18.0428 73.9366 18.1058 74.1952 18.1547L76.473 18.6059C76.9168 18.6968 77.292 18.8157 77.5967 18.9626C77.9085 19.1095 78.1603 19.3089 78.3522 19.5606C78.5449 19.8124 78.684 20.1342 78.7703 20.5259C78.8566 20.9106 78.8995 21.3863 78.8995 21.9529C78.8995 22.4915 78.8467 22.9741 78.7404 23.4007C78.6412 23.8274 78.4357 24.1877 78.1239 24.4814C77.8121 24.7752 77.3712 24.999 76.8012 25.1529C76.2308 25.3138 75.4782 25.3942 74.5433 25.3942C74.0261 25.3942 73.5387 25.3558 73.0813 25.2789C72.6237 25.2089 72.2226 25.1285 71.8778 25.0375C71.4734 24.9326 71.0987 24.8137 70.7539 24.6808V22.9391Z" fill="white"/>
<path d="M60.4453 22.9391C60.737 23.009 61.062 23.072 61.42 23.128C61.725 23.1769 62.0831 23.2189 62.4942 23.2539C62.9119 23.2888 63.3694 23.3063 63.8667 23.3063C64.4104 23.3063 64.8414 23.2853 65.1597 23.2433C65.478 23.2014 65.7167 23.1314 65.8758 23.0335C66.0415 22.9286 66.1476 22.7887 66.1941 22.6138C66.2405 22.439 66.2637 22.2186 66.2637 21.9529C66.2637 21.813 66.2537 21.687 66.2339 21.5751C66.2206 21.4562 66.1808 21.3513 66.1145 21.2604C66.0548 21.1625 65.962 21.082 65.836 21.0191C65.7167 20.9491 65.5542 20.8966 65.3487 20.8617L63.1506 20.4315C62.6467 20.3406 62.2223 20.2181 61.8775 20.0643C61.5328 19.9104 61.2542 19.7075 61.0421 19.4557C60.8365 19.1969 60.6873 18.8822 60.5945 18.5114C60.5083 18.1337 60.4652 17.6756 60.4652 17.137C60.4652 15.9759 60.8299 15.112 61.5593 14.5454C62.2952 13.9718 63.3429 13.6851 64.7022 13.6851C65.1796 13.6851 65.6172 13.7165 66.0151 13.7795C66.4195 13.8354 66.7709 13.9019 67.0693 13.9788C67.4141 14.0628 67.7291 14.1572 68.0142 14.2621V16.0458C67.6959 15.9898 67.3643 15.9409 67.0196 15.8989C66.7212 15.8639 66.3863 15.829 66.0151 15.794C65.6503 15.759 65.2791 15.7415 64.9011 15.7415C64.4701 15.7415 64.1121 15.7625 63.827 15.8045C63.5418 15.8394 63.3164 15.9024 63.1506 15.9933C62.9849 16.0842 62.8688 16.2032 62.8025 16.3501C62.7362 16.4899 62.703 16.6683 62.703 16.8851C62.703 17.053 62.7163 17.2034 62.7429 17.3363C62.7693 17.4692 62.8257 17.5881 62.9119 17.693C62.9981 17.7979 63.1175 17.8889 63.27 17.9658C63.4225 18.0428 63.628 18.1058 63.8866 18.1547L66.1642 18.6059C66.6084 18.6968 66.9831 18.8157 67.2881 18.9626C67.5997 19.1095 67.8517 19.3089 68.044 19.5606C68.2363 19.8124 68.3755 20.1342 68.4617 20.5259C68.5479 20.9106 68.591 21.3863 68.591 21.9529C68.591 22.4915 68.538 22.9741 68.4319 23.4007C68.3324 23.8274 68.1269 24.1877 67.8153 24.4814C67.5036 24.7752 67.0627 24.999 66.4924 25.1529C65.9222 25.3138 65.1696 25.3942 64.2347 25.3942C63.7175 25.3942 63.2302 25.3558 62.7727 25.2789C62.3151 25.2089 61.914 25.1285 61.5692 25.0375C61.1648 24.9326 60.7901 24.8137 60.4453 24.6808V22.9391Z" fill="white"/>
<path d="M48.6797 21.9324C48.6797 21.3028 48.7659 20.7713 48.9383 20.3376C49.1173 19.9039 49.356 19.5542 49.6544 19.2883C49.9594 19.0226 50.3141 18.8302 50.7186 18.7113C51.1297 18.5924 51.5706 18.5329 52.0414 18.5329C52.5188 18.5329 52.9498 18.5609 53.3344 18.6169C53.7256 18.6728 54.0637 18.7357 54.3489 18.8057C54.6737 18.8827 54.9688 18.9701 55.2341 19.068V18.0398C55.2341 17.781 55.2241 17.5642 55.2042 17.3893C55.1909 17.2074 55.1644 17.0501 55.1246 16.9171C55.0848 16.7842 55.0285 16.6723 54.9555 16.5814C54.8893 16.4905 54.8064 16.403 54.7069 16.3191C54.4947 16.1582 54.203 16.0428 53.8317 15.9729C53.4603 15.9029 52.9763 15.868 52.3796 15.868C52.0016 15.868 51.6336 15.8819 51.2756 15.9099C50.9242 15.9309 50.6092 15.9589 50.3307 15.9938C50.0058 16.0288 49.6975 16.0673 49.4058 16.1093V14.3676C49.671 14.2557 49.9992 14.1542 50.3904 14.0633C50.7219 13.9864 51.1363 13.9164 51.6336 13.8535C52.1309 13.7835 52.7211 13.7485 53.404 13.7485C53.8615 13.7485 54.266 13.7695 54.6174 13.8115C54.9754 13.8465 55.2904 13.9094 55.5623 14.0004C55.8341 14.0913 56.0728 14.2102 56.2784 14.357C56.4905 14.504 56.6795 14.6858 56.8453 14.9026C56.9845 15.0845 57.1005 15.2768 57.1934 15.4798C57.2862 15.6826 57.3625 15.9204 57.4222 16.1932C57.4818 16.466 57.5216 16.7808 57.5415 17.1375C57.568 17.4872 57.5813 17.8964 57.5813 18.3651V25.0695H55.5822L55.4031 24.2512C55.1114 24.468 54.7898 24.6603 54.4384 24.8282C54.1334 24.9681 53.7753 25.0975 53.3642 25.2164C52.9597 25.3353 52.5122 25.3948 52.0215 25.3948C51.4248 25.3948 50.9142 25.3318 50.4899 25.2059C50.0655 25.08 49.7174 24.8807 49.4455 24.6078C49.1803 24.3351 48.9847 23.9783 48.8587 23.5377C48.7394 23.097 48.6797 22.5619 48.6797 21.9324ZM51.0965 21.9324C51.0965 22.2401 51.1331 22.4849 51.206 22.6669C51.2789 22.8487 51.385 22.9886 51.5242 23.0865C51.6634 23.1774 51.8325 23.2369 52.0314 23.2649C52.237 23.2928 52.4691 23.3068 52.7277 23.3068C53.0658 23.3068 53.3841 23.2754 53.6824 23.2124C53.9875 23.1424 54.256 23.069 54.4881 22.9921C54.7534 22.9012 55.002 22.7962 55.2341 22.6773V20.7573C55.0219 20.7153 54.7931 20.6768 54.5478 20.6419C54.3356 20.6069 54.0936 20.5789 53.8217 20.5579C53.5565 20.53 53.2747 20.516 52.9763 20.516C52.6448 20.516 52.3597 20.5334 52.121 20.5684C51.8889 20.5963 51.6966 20.6628 51.5441 20.7677C51.3916 20.8657 51.2789 21.0091 51.206 21.1979C51.1331 21.3798 51.0965 21.6246 51.0965 21.9324Z" fill="white"/>
<path d="M31.9766 10.0972H36.114L38.7398 19.1204H38.8193L41.5345 10.0972H45.6024V25.0694H43.2254V12.4369H43.1656L42.8972 13.3812C42.8242 13.647 42.7446 13.9268 42.6584 14.2206C42.5723 14.5073 42.496 14.7557 42.4297 14.9655L40.5996 21.009H37.0291L35.1592 14.9235C35.0929 14.7137 35.0167 14.4689 34.9305 14.1891C34.8443 13.9023 34.7647 13.6295 34.6918 13.3707C34.6056 13.0699 34.516 12.7586 34.4232 12.4369H34.3636V25.0694H31.9766V10.0972Z" fill="white"/>
</g>
</svg>
