<svg width="105" height="34" viewBox="0 0 105 34" fill="none" xmlns="http://www.w3.org/2000/svg">
<g opacity="0.5">
<g clip-path="url(#clip0_2004_333)">
<path d="M14.9326 28.4428H18.4153L17.4012 27.4603C17.1327 27.1995 16.7676 27.0533 16.3879 27.0533H14.9326C9.38915 27.0533 4.89489 22.6984 4.89489 17.3269C4.89489 11.9553 9.38915 7.60043 14.9326 7.60043H26.4042C31.9477 7.60043 36.4411 11.9553 36.4411 17.3269C36.4411 22.6984 31.9477 27.0533 26.4042 27.0533H22.1126C21.5423 27.0533 20.9951 26.8336 20.5915 26.4428L19.4038 25.2919C18.7317 24.6403 17.8193 24.2743 16.8685 24.2743H14.9326C10.9727 24.2743 7.76281 21.1636 7.76281 17.3269C7.76281 13.4902 10.9727 10.3794 14.9326 10.3794H26.4042C30.3641 10.3794 33.5732 13.4902 33.5732 17.3269C33.5732 21.1636 30.3641 24.2743 26.4042 24.2743H23.6483C23.078 24.2743 22.5308 24.0546 22.1272 23.6638L20.9395 22.5129C20.2674 21.8613 19.3559 21.4954 18.405 21.4954H14.9326C12.5563 21.4954 10.6307 19.6287 10.6307 17.3269C10.6307 15.025 12.5563 13.1584 14.9326 13.1584H26.4042C28.7796 13.1584 30.7061 15.025 30.7061 17.3269C30.7061 19.6005 28.8267 21.45 26.4906 21.4945L25.4406 21.4954C24.8702 21.4954 24.323 21.2756 23.9203 20.8848L22.7317 19.7339C22.1802 19.1995 21.4679 18.8566 20.7043 18.7514L20.6684 18.7164H14.9326C14.1408 18.7164 13.4986 18.0939 13.4986 17.3269C13.4986 16.5599 14.1408 15.9374 14.9326 15.9374H26.4042C27.196 15.9374 27.8382 16.5599 27.8382 17.3269C27.8382 18.0939 27.196 18.7164 26.4042 18.7164H23.5363L24.5496 19.6988C24.8189 19.9596 25.1841 20.1059 25.5637 20.1059H26.4042C27.9878 20.1059 29.2722 18.8617 29.2722 17.3269C29.2722 15.792 27.9878 14.5479 26.4042 14.5479H14.9326C13.349 14.5479 12.0647 15.792 12.0647 17.3269C12.0647 18.8617 13.349 20.1059 14.9326 20.1059H20.1973C20.7676 20.1059 21.3148 20.3256 21.7184 20.7164L22.9061 21.8673C23.5782 22.5189 24.4906 22.8848 25.4406 22.8848H26.7625V22.8737C29.763 22.695 32.1401 20.2794 32.1401 17.3269C32.1401 14.2572 29.5714 11.7689 26.4042 11.7689H14.9326C11.7645 11.7689 9.19676 14.2572 9.19676 17.3269C9.19676 20.3966 11.7645 22.8848 14.9326 22.8848H18.405C18.9754 22.8848 19.5226 23.1046 19.9254 23.4954L21.1139 24.6463C21.786 25.2979 22.6975 25.6638 23.6483 25.6638H26.4042C31.1559 25.6638 35.008 21.9314 35.008 17.3269C35.008 12.7223 31.1559 8.98992 26.4042 8.98992H14.9326C10.181 8.98992 6.32885 12.7223 6.32885 17.3269C6.32885 21.9314 10.181 25.6638 14.9326 25.6638H16.8685C17.4397 25.6638 17.9869 25.8836 18.3896 26.2744L19.5782 27.4253C20.2503 28.0769 21.1618 28.4428 22.1126 28.4428H26.4042C32.7395 28.4428 37.875 23.4654 37.875 17.3269C37.875 11.1875 32.7395 6.21094 26.4042 6.21094H14.9326C8.5965 6.21094 3.46094 11.1875 3.46094 17.3269C3.46094 23.4654 8.5965 28.4428 14.9326 28.4428Z" fill="white"/>
<path d="M99.3789 26.3241C98.3297 26.3241 97.5336 26.0778 96.9907 25.587C96.4477 25.0783 96.1758 24.2454 96.1758 23.0885V8.33252H99.1343V22.8251C99.1343 23.316 99.225 23.6494 99.4062 23.8247C99.5875 24 99.8586 24.0881 100.22 24.0881C100.655 24.0881 101.071 24.0351 101.47 23.9299V26.0077C101.126 26.1309 100.791 26.2095 100.465 26.2446C100.157 26.2976 99.7953 26.3241 99.3789 26.3241Z" fill="white"/>
<path d="M93.3281 26.3241C92.2781 26.3241 91.482 26.0778 90.939 25.587C90.3961 25.0783 90.125 24.2454 90.125 23.0885V8.33252H93.0835V22.8251C93.0835 23.316 93.1742 23.6494 93.3546 23.8247C93.5359 24 93.8078 24.0881 94.1695 24.0881C94.6039 24.0881 95.0194 24.0351 95.4179 23.9299V26.0077C95.0742 26.1309 94.739 26.2095 94.414 26.2446C94.1062 26.2976 93.7437 26.3241 93.3281 26.3241Z" fill="white"/>
<path d="M80.1578 26.3238C79.3437 26.3238 78.5836 26.1827 77.8781 25.9022C77.1907 25.6217 76.6383 25.201 76.2219 24.6401C75.8063 24.0612 75.5977 23.3515 75.5977 22.5093C75.5977 21.3173 76.0141 20.3613 76.8469 19.6422C77.6969 18.906 79 18.5375 80.7555 18.5375H84.8812V17.9851C84.8812 17.3891 84.782 16.9154 84.5828 16.5648C84.4015 16.2142 84.0577 15.9603 83.5515 15.8021C83.0624 15.6439 82.339 15.5652 81.3797 15.5652C79.8593 15.5652 78.4391 15.785 77.118 16.2228V14.0928C77.6969 13.8645 78.4031 13.6807 79.2351 13.5404C80.068 13.4002 80.9632 13.3301 81.9226 13.3301C83.8046 13.3301 85.2343 13.6978 86.2117 14.4348C87.207 15.171 87.7046 16.3724 87.7046 18.0381V26.0604H85.1796L84.9898 24.7975C84.4648 25.2891 83.814 25.6654 83.0351 25.9287C82.2758 26.1921 81.3164 26.3238 80.1578 26.3238ZM80.9453 24.2716C81.832 24.2716 82.6016 24.1314 83.2523 23.8509C83.9218 23.5525 84.4648 23.1583 84.8812 22.6675V20.4845H80.8093C79.9414 20.4845 79.3078 20.6504 78.9094 20.9838C78.5297 21.2994 78.3399 21.7902 78.3399 22.4571C78.3399 23.1053 78.5656 23.5704 79.0179 23.8509C79.4703 24.1314 80.1133 24.2716 80.9453 24.2716Z" fill="white"/>
<path d="M72.1593 26.3227C70.7835 26.3227 69.7523 25.9721 69.0648 25.271C68.3953 24.5518 68.0601 23.5788 68.0601 22.3509V15.8284H66.1602V13.5924H68.0601V10.7253L70.9922 9.85742V13.5924H74.4125L74.2226 15.8284H70.9922V22.1936C70.9922 22.9127 71.164 23.4206 71.5078 23.719C71.8515 23.9995 72.4124 24.1397 73.1906 24.1397C73.6797 24.1397 74.1953 24.0525 74.7382 23.8772V25.902C74.032 26.1825 73.1726 26.3227 72.1593 26.3227Z" fill="white"/>
<path d="M64.3906 26.3241C63.3406 26.3241 62.5445 26.0778 62.0015 25.587C61.4586 25.0783 61.1875 24.2454 61.1875 23.0885V8.33252H64.1461V22.8251C64.1461 23.316 64.2367 23.6494 64.4171 23.8247C64.5984 24 64.8694 24.0881 65.232 24.0881C65.6664 24.0881 66.0819 24.0351 66.4804 23.9299V26.0077C66.1367 26.1309 65.8015 26.2095 65.4757 26.2446C65.1687 26.2976 64.8062 26.3241 64.3906 26.3241Z" fill="white"/>
<path d="M43.9023 26.0601L50.5805 9.12109H53.8922L60.5147 26.0601H57.4749L55.7374 21.6941H48.707L46.9703 26.0601H43.9023ZM49.1687 19.4846H55.2492L52.2085 11.7248L49.1687 19.4846Z" fill="white"/>
</g>
</g>
<defs>
<clipPath id="clip0_2004_333">
<rect width="104.319" height="33.3478" fill="white" transform="translate(0 0.652344)"/>
</clipPath>
</defs>
</svg>
