<svg width="34" height="35" viewBox="0 0 34 35" fill="none" xmlns="http://www.w3.org/2000/svg">
<g opacity="0.3">
<path fill-rule="evenodd" clip-rule="evenodd" d="M17.1451 6.1292C17.0968 6.12861 17.0484 6.12831 17 6.12831C16.9514 6.12831 16.9029 6.12861 16.8544 6.12921C15.6546 8.15817 14.7775 10.3507 14.2456 12.6283H19.754C19.222 10.3507 18.3449 8.15817 17.1451 6.1292ZM20.129 14.6283H13.8705C13.718 15.7009 13.6406 16.7869 13.6406 17.8783C13.6406 18.9698 13.718 20.0557 13.8705 21.1283H20.129C20.2815 20.0557 20.3589 18.9698 20.3589 17.8783C20.3589 16.7869 20.2815 15.7009 20.129 14.6283ZM22.1475 21.1283C22.2878 20.0544 22.3589 18.9689 22.3589 17.8783C22.3589 16.7877 22.2878 15.7022 22.1475 14.6283H28.2916C28.5931 15.6757 28.75 16.7689 28.75 17.8783C28.75 18.9799 28.5951 20.0738 28.2916 21.1283H22.1475ZM19.754 23.1283H14.2456C14.7775 25.4059 15.6546 27.5984 16.8544 29.6274C16.9029 29.628 16.9515 29.6283 17 29.6283C17.0484 29.6283 17.0968 29.628 17.1451 29.6274C18.3449 27.5984 19.222 25.4059 19.754 23.1283ZM19.5871 29.34C20.5981 27.3719 21.3422 25.2829 21.8033 23.1283H27.5119C26.9476 24.2581 26.2041 25.2913 25.3085 26.1868C24.2174 27.2779 22.9221 28.1434 21.4965 28.7339C20.877 28.9905 20.2381 29.193 19.5871 29.34ZM17.5558 31.6171C17.6933 31.638 17.8328 31.6298 17.9653 31.5944C19.4406 31.4906 20.8916 31.1492 22.2619 30.5817C23.9301 29.8906 25.4459 28.8778 26.7227 27.601C27.9995 26.3242 29.0123 24.8084 29.7033 23.1402C30.3943 21.472 30.75 19.684 30.75 17.8783C30.75 14.2316 29.3013 10.7342 26.7227 8.15559C24.3725 5.80541 21.2592 4.39386 17.9652 4.1622C17.8328 4.12685 17.6933 4.1186 17.5559 4.13954C17.371 4.13207 17.1857 4.12831 17 4.12831C16.8142 4.12831 16.6287 4.13207 16.4437 4.13955C16.3062 4.11859 16.1667 4.12685 16.0342 4.16224C12.7404 4.39404 9.62731 5.80556 7.27728 8.15559C4.69866 10.7342 3.25 14.2316 3.25 17.8783C3.25 19.684 3.60565 21.472 4.29666 23.1402C4.98766 24.8084 6.00048 26.3242 7.27728 27.601C8.55409 28.8778 10.0699 29.8907 11.7381 30.5817C13.1082 31.1491 14.559 31.4905 16.0341 31.5943C16.1666 31.6298 16.3062 31.638 16.4438 31.6171C16.6289 31.6246 16.8144 31.6283 17 31.6283C17.1855 31.6283 17.3708 31.6246 17.5558 31.6171ZM19.5871 6.41662C21.7369 6.90192 23.7253 7.98665 25.3085 9.5698C26.2113 10.4726 26.952 11.5072 27.5119 12.6283H21.8033C21.3422 10.4737 20.5981 8.38464 19.5871 6.41662ZM14.4124 29.3398C13.4014 27.3719 12.6574 25.2828 12.1962 23.1283H6.4881C7.05237 24.2581 7.79594 25.2913 8.69149 26.1868C9.78258 27.2779 11.0779 28.1434 12.5035 28.7339C13.1228 28.9904 13.7615 29.1929 14.4124 29.3398ZM11.6406 17.8783C11.6406 16.7877 11.7117 15.7022 11.8521 14.6283H5.70839C5.40689 15.6757 5.25 16.7689 5.25 17.8783C5.25 18.9799 5.40491 20.0738 5.70841 21.1283H11.8521C11.7117 20.0544 11.6406 18.9689 11.6406 17.8783ZM12.1962 12.6283C12.6574 10.4738 13.4014 8.38473 14.4124 6.41673C12.2627 6.9021 10.2745 7.98678 8.69149 9.5698C7.7887 10.4726 7.04799 11.5072 6.48809 12.6283H12.1962Z" fill="url(#paint0_linear_2015_3608)"/>
</g>
<defs>
<linearGradient id="paint0_linear_2015_3608" x1="15.5352" y1="4.12817" x2="15.5352" y2="31.6284" gradientUnits="userSpaceOnUse">
<stop stop-color="white"/>
<stop offset="1" stop-color="#999999"/>
</linearGradient>
</defs>
</svg>
