<svg width="89" height="26" viewBox="0 0 89 26" fill="none" xmlns="http://www.w3.org/2000/svg">
<g id="Group" opacity="0.5">
<g id="Mask group">
<mask id="mask0_317_1063" style="mask-type:luminance" maskUnits="userSpaceOnUse" x="0" y="0" width="26" height="26">
<g id="Group_2" opacity="0.8">
<path id="Vector" d="M25.2788 0.636353H0.318848V25.5964H25.2788V0.636353Z" fill="white"/>
</g>
</mask>
<g mask="url(#mask0_317_1063)">
<g id="Group_3">
<path id="Vector_2" d="M20.0089 13.1504C21.562 12.1947 22.8554 10.8708 23.7747 9.29588C24.6939 7.72096 25.2105 5.94364 25.2789 4.12136C25.2803 4.0657 25.2707 4.01031 25.2506 3.95841C25.2304 3.9065 25.2002 3.85912 25.1615 3.81901C25.1229 3.77891 25.0767 3.74688 25.0256 3.72479C24.9745 3.70271 24.9195 3.691 24.8639 3.69036H22.6239C22.5357 3.69036 22.4512 3.65541 22.3887 3.59318C22.3263 3.53094 22.2911 3.4465 22.2909 3.35836V1.05136C22.2909 0.995485 22.2797 0.940181 22.2578 0.888759C22.236 0.837337 22.2039 0.790854 22.1637 0.752101C22.1235 0.713348 22.0758 0.683121 22.0236 0.663232C21.9714 0.643343 21.9157 0.634202 21.8599 0.636356C20.0386 0.708639 18.263 1.22698 16.6888 2.14585C15.1147 3.06472 13.7903 4.35602 12.8319 5.90636C11.8736 4.35584 10.5492 3.0644 8.97506 2.1455C7.4009 1.22661 5.62516 0.70838 3.80385 0.636356C3.74811 0.634759 3.69262 0.644278 3.6406 0.664356C3.58857 0.684434 3.54107 0.714669 3.50086 0.753299C3.46065 0.791929 3.42853 0.838181 3.40638 0.889354C3.38423 0.940528 3.37249 0.995599 3.37185 1.05136V3.29136C3.37185 3.47436 3.22185 3.62336 3.03985 3.62336H0.732853C0.676894 3.62331 0.621504 3.63458 0.570013 3.65649C0.518521 3.6784 0.471993 3.7105 0.433226 3.75085C0.394459 3.79121 0.364254 3.83899 0.344427 3.89132C0.3246 3.94365 0.315561 3.99944 0.317853 4.05536C0.390136 5.8766 0.908473 7.65225 1.82735 9.22636C2.74622 10.8005 4.03752 12.1249 5.58785 13.0834C4.03805 14.0424 2.74717 15.367 1.82837 16.941C0.909576 18.5149 0.390912 20.2903 0.317853 22.1114C0.316256 22.1671 0.325775 22.2226 0.345853 22.2746C0.365931 22.3266 0.396167 22.3741 0.434797 22.4144C0.473427 22.4546 0.519677 22.4867 0.570851 22.5088C0.622024 22.531 0.677096 22.5427 0.732853 22.5434H2.97285C3.15585 22.5434 3.30585 22.6924 3.30585 22.8754V25.1904C3.30585 25.4224 3.49585 25.6134 3.73685 25.6054C5.5581 25.5331 7.33374 25.0147 8.90786 24.0959C10.482 23.177 11.8064 21.8857 12.7649 20.3354C14.6569 23.3894 17.9849 25.4644 21.7929 25.6054C21.8486 25.607 21.9041 25.5974 21.9561 25.5774C22.0081 25.5573 22.0556 25.527 22.0958 25.4884C22.1361 25.4498 22.1682 25.4035 22.1903 25.3524C22.2125 25.3012 22.2242 25.2461 22.2249 25.1904V22.9504C22.2249 22.7674 22.3749 22.6174 22.5569 22.6174H24.8719C25.1039 22.6174 25.2949 22.4274 25.2869 22.1864C25.2143 20.363 24.6951 18.5854 23.7748 17.0097C22.8545 15.434 21.5613 14.1094 20.0089 13.1504ZM12.7989 11.7474C13.1529 11.7609 13.4879 11.911 13.7336 12.1663C13.9793 12.4216 14.1165 12.7621 14.1165 13.1164C14.1165 13.4706 13.9793 13.8112 13.7336 14.0664C13.4879 14.3217 13.1529 14.4718 12.7989 14.4854C12.4357 14.4854 12.0874 14.3412 11.8305 14.0844C11.5736 13.8277 11.4291 13.4795 11.4289 13.1164C11.4291 12.7532 11.5736 12.405 11.8305 12.1483C12.0874 11.8916 12.4357 11.7474 12.7989 11.7474ZM21.9429 4.33736C21.7903 6.16567 20.999 7.88193 19.7077 9.18526C18.4165 10.4886 16.7077 11.2958 14.8809 11.4654C14.833 11.4693 14.7848 11.4628 14.7397 11.4462C14.6946 11.4297 14.6537 11.4035 14.6197 11.3695C14.5857 11.3356 14.5596 11.2946 14.543 11.2495C14.5265 11.2044 14.5199 11.1562 14.5239 11.1084C14.6762 9.27998 15.4674 7.56361 16.7587 6.26024C18.05 4.95688 19.759 4.14974 21.5859 3.98036C21.7859 3.96436 21.9589 4.13036 21.9429 4.33736ZM10.7889 11.3904C8.96081 11.2378 7.2448 10.4466 5.94166 9.15555C4.63852 7.86448 3.83142 6.1559 3.66185 4.32936C3.65794 4.28157 3.66445 4.2335 3.68094 4.18848C3.69743 4.14346 3.72351 4.10255 3.75737 4.0686C3.79122 4.03465 3.83205 4.00846 3.87703 3.99184C3.92201 3.97522 3.97005 3.96857 4.01785 3.97236C5.84623 4.12474 7.5626 4.91595 8.86596 6.20724C10.1693 7.49854 10.9765 9.20747 11.1459 11.0344C11.1629 11.2414 10.9879 11.4154 10.7889 11.3904ZM3.65385 21.8954C3.80646 20.0672 4.59777 18.351 5.88904 17.0479C7.18032 15.7447 8.88913 14.9377 10.7159 14.7684C10.7636 14.7644 10.8117 14.771 10.8567 14.7874C10.9018 14.8039 10.9427 14.83 10.9766 14.8639C11.0106 14.8977 11.0368 14.9386 11.0534 14.9835C11.07 15.0285 11.0766 15.0766 11.0729 15.1244C10.9205 16.9527 10.1293 18.6691 8.83797 19.9725C7.54667 21.2758 5.83774 22.083 4.01085 22.2524C3.96297 22.2563 3.91481 22.2498 3.86971 22.2332C3.82461 22.2167 3.78366 22.1905 3.74969 22.1565C3.71572 22.1226 3.68955 22.0816 3.673 22.0365C3.65645 21.9914 3.64992 21.9432 3.65385 21.8954ZM14.8139 14.8424C16.6423 14.9947 18.3588 15.7859 19.6624 17.0772C20.9659 18.3684 21.7732 20.0774 21.9429 21.9044C21.9466 21.9522 21.94 22.0003 21.9233 22.0453C21.9067 22.0903 21.8806 22.1312 21.8466 22.1651C21.8127 22.1991 21.7718 22.2252 21.7268 22.2419C21.6818 22.2585 21.6337 22.2651 21.5859 22.2614C19.7575 22.109 18.0411 21.3178 16.7377 20.0265C15.4344 18.7352 14.6272 17.0262 14.4579 15.1994C14.4526 15.1512 14.4583 15.1025 14.4744 15.0568C14.4905 15.0111 14.5166 14.9696 14.5509 14.9354C14.5851 14.9011 14.6266 14.875 14.6723 14.8589C14.718 14.8428 14.7657 14.8371 14.8139 14.8424Z" fill="white"/>
</g>
</g>
</g>
<path id="Vector_3" d="M75.4678 20.1104C74.2218 18.9604 73.5998 17.2684 73.5998 15.0324C73.5998 12.7894 74.2218 11.0964 75.4678 9.95435C76.7128 8.80435 78.5018 8.22935 80.8328 8.22935C83.1728 8.22935 84.9648 8.80435 86.2108 9.95435C87.4558 11.0964 88.0788 12.7884 88.0788 15.0324C88.0788 17.2684 87.4558 18.9604 86.2108 20.1104C84.9648 21.2604 83.1728 21.8354 80.8328 21.8354C78.5018 21.8354 76.7128 21.2604 75.4678 20.1104ZM78.4978 11.9184C78.0028 12.5654 77.7548 13.5984 77.7548 15.0204C77.7548 16.4414 78.0028 17.4804 78.4978 18.1344C78.9928 18.7894 79.7708 19.1164 80.8328 19.1164C81.9028 19.1164 82.6858 18.7894 83.1808 18.1344C83.6838 17.4794 83.9348 16.4414 83.9348 15.0204C83.9348 13.5994 83.6838 12.5654 83.1808 11.9184C82.6858 11.2714 81.9028 10.9484 80.8328 10.9484C79.7708 10.9484 78.9928 11.2714 78.4978 11.9184ZM67.2558 20.8654V5.16435C67.2517 5.06678 67.2676 4.96939 67.3027 4.87824C67.3377 4.78708 67.3911 4.7041 67.4596 4.63444C67.528 4.56477 67.6101 4.50991 67.7006 4.47326C67.7911 4.4366 67.8882 4.41894 67.9858 4.42135H70.6688C70.8768 4.42135 71.0488 4.49335 71.1838 4.63735C71.2552 4.70484 71.3113 4.78674 71.3485 4.8776C71.3858 4.96847 71.4033 5.06621 71.3998 5.16435V20.8654C71.4016 20.9618 71.3839 21.0576 71.3478 21.147C71.3116 21.2365 71.2578 21.3177 71.1896 21.3858C71.1213 21.454 71.04 21.5077 70.9506 21.5437C70.8611 21.5797 70.7653 21.5973 70.6688 21.5954H67.9858C67.7902 21.6 67.6007 21.527 67.4588 21.3924C67.324 21.2505 67.251 21.061 67.2558 20.8654ZM52.0908 20.7334C51.0368 19.9984 50.5098 18.9604 50.5098 17.6194C50.5098 16.2784 51.0368 15.2484 52.0898 14.5294C53.1528 13.8104 54.5178 13.4514 56.1868 13.4514H60.1508C60.1508 12.5174 59.9548 11.8664 59.5638 11.4994C59.1728 11.1324 58.4858 10.9484 57.5038 10.9484C56.5298 10.9484 55.8438 11.1924 55.4438 11.6784C55.0528 12.1584 54.5698 12.3984 53.9938 12.3984H52.2098C52.0102 12.4044 51.8164 12.331 51.6708 12.1944C51.536 12.0525 51.463 11.863 51.4678 11.6674C51.4678 9.37535 53.6438 8.22935 57.9948 8.22935C59.8948 8.22935 61.4198 8.65735 62.5698 9.51135C63.7198 10.3574 64.2948 11.6714 64.2948 13.4514V20.8654C64.2985 20.9625 64.2823 21.0593 64.2473 21.1499C64.2122 21.2406 64.1589 21.3231 64.0908 21.3924C64.0214 21.4603 63.9389 21.5133 63.8483 21.5483C63.7576 21.5832 63.6609 21.5992 63.5638 21.5954H61.2528C61.1558 21.5992 61.059 21.5832 60.9684 21.5483C60.8777 21.5133 60.7952 21.4603 60.7258 21.3924C60.5908 21.2506 60.5174 21.0611 60.5218 20.8654V20.4934C59.2608 21.3964 57.8028 21.8434 56.1508 21.8354C54.5058 21.8354 53.1528 21.4684 52.0908 20.7334ZM56.4738 16.1704C55.9148 16.1704 55.4718 16.3064 55.1438 16.5774C54.9893 16.7051 54.8659 16.8665 54.783 17.0491C54.7002 17.2318 54.6601 17.4309 54.6658 17.6314C54.6658 18.0624 54.8328 18.4174 55.1688 18.6974C55.5038 18.9774 55.9788 19.1174 56.5938 19.1174C57.8238 19.1174 59.0088 18.7574 60.1508 18.0384V16.1704H56.4738ZM49.7668 21.0684C49.7668 21.4204 49.5598 21.5954 49.1438 21.5954H46.4018C46.0898 21.5954 45.7548 21.4874 45.3958 21.2724C45.0594 21.071 44.7727 20.7966 44.5568 20.4694L42.4498 17.1284C41.9468 16.3134 41.4398 15.7034 40.9288 15.2954C40.4168 14.8804 39.8028 14.6734 39.0838 14.6734H36.5088V20.4934C36.5088 20.8054 36.3968 21.0684 36.1738 21.2834C36.0695 21.3853 35.9459 21.4654 35.8103 21.519C35.6746 21.5726 35.5296 21.5985 35.3838 21.5954H33.1318C32.8198 21.5954 32.5528 21.4834 32.3288 21.2604C32.2215 21.1537 32.1365 21.0267 32.079 20.8867C32.0215 20.7467 31.9925 20.5967 31.9938 20.4454V5.55835C31.9938 5.24835 32.1058 4.97635 32.3288 4.74435C32.4311 4.63371 32.5553 4.54568 32.6936 4.48591C32.8319 4.42615 32.9812 4.39599 33.1318 4.39735H35.3828C35.6948 4.39735 35.9578 4.51335 36.1728 4.74435C36.3968 4.97635 36.5088 5.24735 36.5088 5.55835V11.2954H39.0838C39.7868 11.2954 40.4018 11.1044 40.9288 10.7204C41.4638 10.3374 41.9708 9.71835 42.4488 8.86435L44.3058 5.55835C44.7288 4.79235 45.3038 4.40535 46.0308 4.39735H48.7968C49.1798 4.39735 49.3718 4.56535 49.3718 4.90035C49.3718 5.08335 49.3038 5.30335 49.1678 5.55935L46.5698 10.2654C46.1938 10.9524 45.7708 11.5194 45.2998 11.9654C44.8368 12.4134 44.2298 12.7294 43.4798 12.9124C44.0068 13.0244 44.5458 13.3554 45.0958 13.9064C45.6558 14.4574 46.1458 15.0564 46.5698 15.7034L49.5638 20.4694C49.6988 20.7014 49.7668 20.8994 49.7668 21.0684Z" fill="white"/>
</g>
</svg>
