<svg width="42" height="42" viewBox="0 0 42 42" fill="none" xmlns="http://www.w3.org/2000/svg">
<path fill-rule="evenodd" clip-rule="evenodd" d="M14.5856 0.589233C12.2829 0.589233 10.0747 1.50398 8.44648 3.13225L0.589844 10.9892V14.5855C0.589844 17.1264 1.68121 19.4123 3.42072 21.0001C1.68121 22.5878 0.589844 24.8737 0.589844 27.4146V31.011L8.44648 38.8679C10.0747 40.4962 12.2829 41.4109 14.5856 41.4109C17.1263 41.4109 19.4121 40.3195 20.9998 38.5799C22.5875 40.3195 24.8734 41.4109 27.4141 41.4109C29.7167 41.4109 31.925 40.4962 33.5532 38.8679L41.4098 31.011V27.4146C41.4098 24.8737 40.3185 22.5878 38.579 21.0001C40.3185 19.4123 41.4098 17.1264 41.4098 14.5855V10.9892L33.5532 3.13225C31.925 1.50398 29.7167 0.589233 27.4141 0.589233C24.8734 0.589233 22.5875 1.68064 20.9998 3.42022C19.4121 1.68064 17.1263 0.589233 14.5856 0.589233ZM26.8767 21.0001C26.7788 20.9108 26.6828 20.819 26.5887 20.7249L20.9998 15.1358L15.411 20.7249C15.3169 20.819 15.2209 20.9108 15.123 21.0001C15.2209 21.0893 15.3169 21.1811 15.411 21.2752L20.9998 26.8643L26.5887 21.2752C26.6828 21.1811 26.7788 21.0893 26.8767 21.0001ZM23.2676 31.011V32.7285C23.2676 35.0186 25.1241 36.8752 27.4141 36.8752C28.5138 36.8752 29.5685 36.4383 30.3461 35.6606L36.8743 29.1321V27.4146C36.8743 25.1245 35.0178 23.2679 32.7278 23.2679C31.6281 23.2679 30.5735 23.7048 29.7958 24.4824L23.2676 31.011ZM18.7321 31.011L12.2038 24.4824C11.4262 23.7048 10.3716 23.2679 9.27187 23.2679C6.98184 23.2679 5.12539 25.1245 5.12539 27.4146V29.1321L11.6536 35.6606C12.4312 36.4383 13.4859 36.8752 14.5856 36.8752C16.8756 36.8752 18.7321 35.0186 18.7321 32.7285V31.011ZM18.7321 9.27161V10.9892L12.2038 17.5177C11.4262 18.2953 10.3716 18.7322 9.27187 18.7322C6.98184 18.7322 5.12539 16.8756 5.12539 14.5855V12.868L11.6536 6.33949C12.4312 5.56185 13.4859 5.12498 14.5856 5.12498C16.8756 5.12498 18.7321 6.98148 18.7321 9.27161ZM29.7958 17.5177L23.2676 10.9892V9.27161C23.2676 6.98148 25.1241 5.12498 27.4141 5.12498C28.5138 5.12498 29.5685 5.56185 30.3461 6.33949L36.8743 12.868V14.5855C36.8743 16.8756 35.0178 18.7322 32.7278 18.7322C31.6281 18.7322 30.5735 18.2953 29.7958 17.5177Z" fill="url(#paint0_linear_327_716)"/>
<defs>
<linearGradient id="paint0_linear_327_716" x1="18.8256" y1="0.589233" x2="18.8256" y2="41.4109" gradientUnits="userSpaceOnUse">
<stop stop-color="white"/>
<stop offset="1" stop-color="#999999"/>
</linearGradient>
</defs>
</svg>
