<svg width="42" height="42" viewBox="0 0 42 42" fill="none" xmlns="http://www.w3.org/2000/svg">
<path d="M18.7777 27.1323C18.8897 27.2723 18.9037 27.4683 18.8057 27.6223C18.6377 27.8884 18.4837 28.1544 18.3297 28.4204C17.4477 29.9465 16.7197 31.5566 16.1458 33.2227C16.0618 33.4468 15.7538 33.4748 15.6418 33.2647C14.1718 30.6606 12.0858 28.4624 9.53782 26.8383C6.79384 25.1022 3.65787 24.1361 0.409902 24.0381C0.185905 24.0381 0.00390625 23.8421 0.00390625 23.6181V18.3817C0.00390625 18.1577 0.185905 17.9756 0.409902 17.9616C3.65787 17.8636 6.79384 16.8976 9.53782 15.1614C12.0718 13.5513 14.1718 11.3392 15.6418 8.73498C15.7678 8.52496 16.0758 8.55297 16.1458 8.77698C16.7197 10.4431 17.4477 12.0532 18.3297 13.5793C18.4837 13.8453 18.6517 14.1114 18.8057 14.3774C18.9037 14.5314 18.8897 14.7274 18.7777 14.8674C16.8317 17.3176 14.4798 19.3337 11.7638 20.8739L11.5538 20.9999L11.7638 21.1259C14.4798 22.666 16.8457 24.6821 18.7777 27.1323Z" fill="white"/>
<path d="M41.9925 18.3817V23.6181C41.9925 23.8421 41.8105 24.0241 41.5865 24.0381C32.0386 24.3322 24.3247 32.0467 24.0307 41.5954C24.0307 41.8194 23.8347 42.0014 23.6107 42.0014H18.3887C18.1507 42.0014 17.9688 41.8054 17.9688 41.5814C18.1647 33.1388 22.8267 25.3402 30.2046 21.1259L30.4146 20.9999L30.2046 20.8739C22.8127 16.6596 18.1647 8.86105 17.9688 0.418443C17.9688 0.180426 18.1507 -0.00158691 18.3887 -0.00158691H23.6107C23.8347 -0.00158691 24.0167 0.180426 24.0307 0.404442C24.3247 9.95313 32.0386 17.6677 41.5865 17.9617C41.8105 17.9617 41.9925 18.1577 41.9925 18.3817Z" fill="white"/>
</svg>
