<svg width="48" height="32" viewBox="0 0 48 32" fill="none" xmlns="http://www.w3.org/2000/svg">
<path d="M16 31.9997H20.8578L19.4436 30.5855C19.0686 30.2104 18.5598 29.9997 18.0294 29.9997H16C8.268 29.9997 2 23.7319 2 16C2 8.26819 8.268 2.00033 16 2.00032H32C39.732 2.00032 46 8.26819 46 16C46 23.7319 39.732 29.9997 32 29.9997H26.0147C25.219 29.9997 24.456 29.6836 23.8934 29.1211L22.2366 27.4643C21.2989 26.5266 20.027 25.9998 18.701 25.9998H16C10.4771 25.9998 6 21.5228 6 16C6 10.4773 10.4771 6.00024 16 6.00024H32C37.5229 6.00024 42 10.4773 42 16C42 21.5228 37.5229 25.9998 32 25.9998H28.1569C27.3612 25.9998 26.5982 25.6837 26.0355 25.1212L24.3786 23.4643C23.441 22.5267 22.1692 21.9999 20.8431 21.9999H16C12.6863 21.9999 10 19.3136 10 16C10 12.6864 12.6863 10.0002 16 10.0002H32C35.3137 10.0002 38 12.6864 38 16C38 19.2732 35.3788 21.9343 32.121 21.9987L32.1203 21.9999H30.6569C29.8612 21.9999 29.0982 21.6838 28.5355 21.1213L26.8786 19.4644C26.1093 18.695 25.115 18.2023 24.0502 18.0502L24 18H16C14.8954 18 14 17.1046 14 16C14 14.8955 14.8954 14.0001 16 14.0001H32C33.1046 14.0001 34 14.8955 34 16C34 17.1046 33.1046 18 32 18H28L29.4142 19.4142C29.7893 19.7892 30.298 19.9999 30.8284 19.9999H32C34.2091 19.9999 36 18.2091 36 16C36 13.791 34.2091 12.0001 32 12.0001H16C13.7909 12.0001 12 13.791 12 16C12 18.2091 13.7909 19.9999 16 19.9999H23.3431C24.1388 19.9999 24.9018 20.316 25.4645 20.8786L27.1214 22.5354C28.059 23.4731 29.3308 23.9999 30.6569 23.9999H32.5V23.9845C36.6854 23.7264 40 20.2503 40 16C40 11.5819 36.4182 8.00019 32 8.00019H16C11.5818 8.00019 8 11.5819 8 16C8 20.4182 11.5818 23.9999 16 23.9999H20.8431C21.6388 23.9999 22.4018 24.3159 22.9645 24.8785L24.6214 26.5353C25.559 27.473 26.8308 27.9998 28.1569 27.9998H32C38.6274 27.9998 44 22.6273 44 16C44 9.37273 38.6274 4.00028 32 4.00028H16C9.37256 4.00028 4 9.37273 4 16C4 22.6273 9.37256 27.9998 16 27.9998H18.701C19.4966 27.9998 20.2597 28.3158 20.8223 28.8784L22.4792 30.5352C23.4169 31.4729 24.6886 31.9997 26.0147 31.9997H32C40.8366 31.9997 48 24.8364 48 16C48 7.16365 40.8366 0.000365438 32 0.000366211L16 0.000369517C7.16344 0.000370289 -7.72516e-07 7.16366 0 16C7.72516e-07 24.8364 7.16345 31.9997 16 31.9997Z" fill="url(#paint0_linear_327_714)"/>
<defs>
<linearGradient id="paint0_linear_327_714" x1="21.4433" y1="0.000366211" x2="21.4433" y2="31.9997" gradientUnits="userSpaceOnUse">
<stop stop-color="white"/>
<stop offset="1" stop-color="#999999"/>
</linearGradient>
</defs>
</svg>
