<svg width="42" height="42" viewBox="0 0 42 42" fill="none" xmlns="http://www.w3.org/2000/svg">
<path d="M32.0046 18.4532C31.4121 19.0493 30.9583 19.7687 30.6756 20.5601C30.3929 21.3516 30.2883 22.1957 30.3692 23.0322L30.341 23.0041C30.4242 23.9888 30.2913 24.9797 29.9519 25.9078C29.6124 26.8358 29.0745 27.6786 28.3758 28.3774C27.6769 29.0761 26.834 29.614 25.9057 29.9533C24.9776 30.2927 23.9864 30.4256 23.0017 30.3424L23.0298 30.3705C21.8519 30.261 20.6687 30.5172 19.6416 31.1045C18.6147 31.6919 17.7938 32.5816 17.2911 33.6525C16.7885 34.7234 16.6282 35.9231 16.8324 37.0884C17.0367 38.2535 17.5954 39.3274 18.4324 40.1635C19.2693 40.9996 20.3438 41.5572 21.5093 41.7603C22.6749 41.9635 23.8746 41.8022 24.9452 41.2986C26.0158 40.7949 26.9048 39.9735 27.4913 38.9461C28.0778 37.9187 28.3331 36.7355 28.2224 35.5577L28.2521 35.5859C28.1689 34.6013 28.3017 33.6103 28.6411 32.6821C28.9806 31.7541 29.5186 30.9113 30.2173 30.2125C30.9163 29.5138 31.7592 28.9759 32.6873 28.6366C33.6156 28.2972 34.6065 28.1644 35.5914 28.2475L35.5617 28.2194C36.5239 28.3058 37.4926 28.1481 38.3777 27.7607C39.2627 27.3733 40.0357 26.7688 40.6248 26.0032C41.214 25.2376 41.6005 24.3356 41.7481 23.381C41.8958 22.4263 41.8001 21.4498 41.4699 20.5418C41.1397 19.634 40.5856 18.8242 39.859 18.1874C39.1324 17.5507 38.2568 17.1076 37.3134 16.8994C36.3699 16.6911 35.3891 16.7243 34.4619 16.9958C33.5347 17.2675 32.6912 17.7688 32.0093 18.4532H32.0046Z" fill="url(#paint0_linear_327_709)"/>
<path d="M20.4703 26.6799L20.4406 26.6518C21.2776 26.7361 22.1229 26.6334 22.9154 26.351C23.7078 26.0687 24.4277 25.6139 25.0228 25.0194C25.6177 24.4248 26.0733 23.7054 26.3562 22.9132C26.6392 22.1211 26.7425 21.2761 26.6589 20.4391L26.6886 20.4672C26.6054 19.4825 26.7383 18.4916 27.0776 17.5635C27.417 16.6355 27.9551 15.7927 28.6538 15.0938C29.3527 14.3952 30.1956 13.8572 31.1238 13.518C32.052 13.1785 33.043 13.0458 34.0279 13.1289L33.9982 13.1007C35.1763 13.2114 36.3598 12.9559 37.3874 12.3693C38.4151 11.7826 39.2366 10.8933 39.74 9.82257C40.2435 8.7519 40.4044 7.55198 40.2008 6.3865C39.9972 5.22101 39.439 4.14671 38.6022 3.3101C37.7656 2.47351 36.6911 1.91533 35.5255 1.71175C34.3598 1.50816 33.1598 1.66904 32.0889 2.17247C31.0181 2.67588 30.1287 3.49734 29.5419 4.52479C28.9551 5.55222 28.6996 6.73562 28.8103 7.91357L28.7822 7.88387C28.8655 8.8686 28.7329 9.85966 28.3936 10.7879C28.0544 11.716 27.5163 12.559 26.8176 13.2579C26.1187 13.9565 25.2756 14.4945 24.3473 14.8337C23.4189 15.173 22.4278 15.3055 21.4429 15.2222L21.471 15.2519C20.634 15.1676 19.7886 15.2704 18.9962 15.5527C18.2038 15.8349 17.484 16.2898 16.8889 16.8843C16.2938 17.4789 15.8383 18.1983 15.5553 18.9905C15.2725 19.7826 15.1691 20.6276 15.2528 21.4646L15.2246 21.4365C15.3075 22.4211 15.1744 23.4119 14.835 24.3399C14.4954 25.2678 13.9575 26.1106 13.2588 26.8092C12.56 27.5079 11.7171 28.0457 10.7891 28.3852C9.86101 28.7246 8.87005 28.8577 7.8853 28.7748L7.91345 28.803C6.73534 28.6923 5.55178 28.9477 4.5242 29.5345C3.49663 30.1212 2.67506 31.0104 2.17158 32.0811C1.66809 33.1519 1.50717 34.3517 1.71079 35.5172C1.91441 36.6827 2.47266 37.757 3.30936 38.5936C4.14608 39.4303 5.22053 39.9884 6.38617 40.1919C7.55181 40.3955 8.75189 40.2346 9.82272 39.7312C10.8935 39.2278 11.783 38.4064 12.3697 37.379C12.9565 36.3514 13.212 35.1681 13.1013 33.9901L13.131 34.0183C13.0478 33.0335 13.1807 32.0427 13.5202 31.1145C13.8595 30.1865 14.3975 29.3437 15.0963 28.6449C15.7952 27.9463 16.6381 27.4083 17.5662 27.0691C18.4945 26.7297 19.4855 26.5968 20.4703 26.6799Z" fill="url(#paint1_linear_327_709)"/>
<path d="M9.99082 23.5434C10.5834 22.9475 11.0371 22.228 11.3196 21.4365C11.602 20.645 11.7062 19.8008 11.6247 18.9644L11.6544 18.9925C11.5712 18.0076 11.7041 17.0163 12.0437 16.088C12.3833 15.1597 12.9215 14.3167 13.6208 13.6179C14.32 12.9191 15.1632 12.3814 16.0918 12.0422C17.0204 11.703 18.0118 11.5706 18.9969 11.6542L18.9672 11.6261C20.1448 11.7364 21.328 11.4808 22.3551 10.8942C23.3822 10.3076 24.2032 9.41844 24.7065 8.34809C25.2097 7.27773 25.3704 6.07826 25.1668 4.91321C24.9632 3.74816 24.4051 2.67427 23.5687 1.83797C22.7324 1.00168 21.6582 0.443688 20.493 0.24011C19.3279 0.0365154 18.1282 0.197258 17.0578 0.700373C15.9872 1.20349 15.098 2.02451 14.5114 3.05147C13.9246 4.07843 13.6689 5.26135 13.7793 6.43889L13.7512 6.41075C13.8343 7.39542 13.7014 8.38638 13.362 9.31444C13.0225 10.2425 12.4847 11.0853 11.7859 11.7841C11.087 12.4828 10.2441 13.0207 9.31591 13.36C8.38772 13.6994 7.39665 13.8323 6.41185 13.7491L6.43999 13.7772C5.47773 13.6909 4.50925 13.849 3.62431 14.2365C2.73937 14.6241 1.96659 15.2288 1.37758 15.9945C0.788575 16.7601 0.402409 17.6621 0.254841 18.6167C0.107288 19.5714 0.203118 20.5479 0.53345 21.4556C0.863782 22.3634 1.41795 23.1731 2.14458 23.8097C2.87121 24.4464 3.7468 24.8893 4.69022 25.0975C5.63362 25.3056 6.61433 25.2723 7.54147 25.0008C8.46859 24.7291 9.31213 24.2279 9.99393 23.5434H9.99082Z" fill="url(#paint2_linear_327_709)"/>
<defs>
<linearGradient id="paint0_linear_327_709" x1="27.9455" y1="16.7644" x2="27.9455" y2="41.8457" gradientUnits="userSpaceOnUse">
<stop stop-color="white"/>
<stop offset="1" stop-color="#999999"/>
</linearGradient>
<linearGradient id="paint1_linear_327_709" x1="18.8965" y1="1.62598" x2="18.8965" y2="40.2777" gradientUnits="userSpaceOnUse">
<stop stop-color="white"/>
<stop offset="1" stop-color="#999999"/>
</linearGradient>
<linearGradient id="paint2_linear_327_709" x1="11.385" y1="0.154297" x2="11.385" y2="25.2323" gradientUnits="userSpaceOnUse">
<stop stop-color="white"/>
<stop offset="1" stop-color="#999999"/>
</linearGradient>
</defs>
</svg>
