<svg width="64" height="34" viewBox="0 0 64 34" fill="none" xmlns="http://www.w3.org/2000/svg">
<path d="M31.8577 6.99713C31.9386 7.07017 31.9951 7.16621 32.0196 7.27231C32.0442 7.37841 32.0355 7.48946 31.9949 7.5905L25.2448 30.1692C25.1598 30.4157 24.9859 30.6218 24.7572 30.7474C24.5711 30.8717 24.3557 30.9451 24.1324 30.9604H2.67833C2.49511 30.9516 2.32153 30.8758 2.19073 30.7474C2.11292 30.6755 2.05831 30.5821 2.03388 30.4792C2.00945 30.3762 2.01633 30.2683 2.0536 30.1692L8.81895 7.5905C8.8969 7.34088 9.06533 7.12928 9.2913 6.99713C9.48047 6.88175 9.69484 6.81388 9.91603 6.79933H31.3701C31.5519 6.80108 31.7262 6.8718 31.8577 6.99713ZM20.6583 25.62L24.6962 12.1397H13.3902L9.36747 25.62H20.6583ZM52.3366 7.22534C52.4098 7.31028 52.5013 7.37764 52.6042 7.42242C52.7071 7.4672 52.8187 7.48825 52.9309 7.48399H55.7193C55.8255 7.48503 55.9301 7.45903 56.0235 7.40845C56.1168 7.35787 56.1956 7.28437 56.2526 7.19491C56.3021 7.12503 56.3371 7.04592 56.3554 6.96228C56.3737 6.87865 56.375 6.7922 56.3592 6.70805L55.8107 2.69135C55.7585 2.50545 55.6647 2.33379 55.5365 2.18926C55.4632 2.10432 55.3718 2.03696 55.2689 1.99218C55.166 1.9474 55.0543 1.92636 54.9422 1.93061H52.1538C52.0476 1.92958 51.9429 1.95558 51.8496 2.00616C51.7563 2.05674 51.6774 2.13023 51.6205 2.2197C51.5138 2.4327 51.4681 2.56963 51.5138 2.69135L52.0776 6.70805C52.1065 6.90363 52.1973 7.08486 52.3366 7.22534ZM61.1895 2.66092C61.1372 2.47501 61.0434 2.30335 60.9152 2.15883C60.8451 2.0742 60.7563 2.00686 60.6559 1.962C60.5555 1.91715 60.4461 1.89599 60.3362 1.90018H57.5325C57.4281 1.89721 57.3248 1.92251 57.2336 1.9734C57.1424 2.02429 57.0667 2.09889 57.0145 2.18926C56.9131 2.32424 56.8692 2.49379 56.8926 2.66092L57.4563 6.67761C57.4917 6.87113 57.5815 7.05057 57.7154 7.19491C57.7899 7.27819 57.8816 7.34442 57.9842 7.38906C58.0868 7.4337 58.1977 7.4557 58.3096 7.45355H61.1133C61.2175 7.45493 61.3201 7.42896 61.411 7.37822C61.502 7.32748 61.578 7.25379 61.6314 7.16449C61.6844 7.09642 61.7214 7.01734 61.7399 6.9331C61.7584 6.84886 61.7577 6.76157 61.738 6.67761L61.1895 2.66092ZM49.8834 8.74682L49.6091 6.7689H36.0937C35.8815 6.78058 35.6762 6.84889 35.4994 6.96669C35.3872 7.0278 35.2895 7.1125 35.2132 7.21494C35.137 7.31739 35.0839 7.43513 35.0576 7.56007L33.93 11.3333C33.885 11.4276 33.8696 11.5334 33.8859 11.6366C33.9023 11.7398 33.9495 11.8356 34.0214 11.9115C34.1499 12.0321 34.3176 12.1024 34.4938 12.1093H50.9196L46.8817 25.5896H30.5016C30.2904 25.5944 30.0847 25.6576 29.9074 25.7721C29.6919 25.9088 29.5345 26.1201 29.4655 26.3655L28.3227 30.1388C28.2854 30.2356 28.2756 30.3408 28.2944 30.4428C28.3133 30.5449 28.3599 30.6397 28.4293 30.7169C28.5538 30.8456 28.7228 30.9218 28.9017 30.9299H50.4167C50.6392 30.9108 50.8537 30.8377 51.0414 30.7169C51.2664 30.5907 51.4352 30.3842 51.5138 30.1388L57.7001 9.50756H50.7367C50.6262 9.50973 50.5165 9.48925 50.4143 9.44738C50.3121 9.40551 50.2196 9.34312 50.1425 9.26411C50.0165 9.12614 49.9274 8.9587 49.8834 8.77725V8.74682Z" fill="url(#paint0_linear_327_724)"/>
<defs>
<linearGradient id="paint0_linear_327_724" x1="28.7047" y1="1.89966" x2="28.7047" y2="30.9604" gradientUnits="userSpaceOnUse">
<stop stop-color="white"/>
<stop offset="1" stop-color="#999999"/>
</linearGradient>
</defs>
</svg>
