<svg width="46" height="46" viewBox="0 0 46 46" fill="none" xmlns="http://www.w3.org/2000/svg">
<path d="M44.0615 13.913C43.2003 11.9437 42.0605 10.1084 40.6769 8.46359C38.6318 5.95946 36.0795 3.91686 33.188 2.47025C30.2966 1.02365 27.1315 0.205814 23.9012 0.0705771C20.671 -0.0646597 17.4487 0.485765 14.4464 1.68565C11.4442 2.88552 8.73014 4.70764 6.48283 7.03207C4.2355 9.35648 2.5059 12.1305 1.40785 15.1716C0.309812 18.2126 -0.131791 21.4518 0.112136 24.6758C0.356079 27.8999 1.27998 31.0357 2.82308 33.8768C4.36618 36.7181 6.49347 39.2003 9.06494 41.1601C10.7149 42.4427 12.5381 43.4854 14.4803 44.2571C17.2032 45.373 20.1174 45.9478 23.0602 45.9495C29.1345 45.9361 34.9556 43.5147 39.2478 39.2161C43.5398 34.9174 45.9525 29.0925 45.9569 23.0179C45.9613 19.8845 45.316 16.7843 44.0615 13.913ZM23.0432 4.72345C25.6859 4.72318 28.2966 5.30078 30.6924 6.41581C30.1082 6.66826 29.4939 6.84459 28.8647 6.94046C26.7944 7.24016 24.8765 8.20139 23.3973 9.68069C21.918 11.16 20.9568 13.078 20.6571 15.1484C20.5256 16.3096 19.9975 17.3898 19.162 18.2069C18.3265 19.0239 17.2348 19.5276 16.071 19.6332C14.0007 19.9329 12.0827 20.8942 10.6035 22.3735C9.12431 23.8528 8.1631 25.7707 7.86342 27.8412C7.76195 28.9453 7.2909 29.9829 6.52651 30.7859C5.20762 27.9991 4.61515 24.9237 4.80421 21.8463C4.99328 18.7689 5.95773 15.7893 7.60783 13.1848C9.25792 10.5804 11.54 8.43568 14.2418 6.95034C16.9436 5.46501 19.9772 4.68731 23.0602 4.6896L23.0432 4.72345ZM9.04802 34.8645C9.2511 34.6783 9.45417 34.5091 9.65724 34.306C11.1628 32.8463 12.1292 30.9194 12.3988 28.8397C12.508 27.6706 13.03 26.5787 13.871 25.7596C14.6805 24.9171 15.7698 24.3994 16.9341 24.3041C19.0044 24.0044 20.9223 23.0431 22.4015 21.5638C23.8808 20.0845 24.842 18.1666 25.1417 16.0962C25.215 14.8734 25.7396 13.7214 26.614 12.8637C27.4434 12.0376 28.543 11.5388 29.7109 11.4591C31.6128 11.1974 33.3867 10.3518 34.7877 9.03899C36.3831 10.3625 37.7345 11.9548 38.7815 13.7438C38.7172 13.8306 38.6434 13.9101 38.5615 13.9807C37.7538 14.8306 36.6658 15.3596 35.4985 15.47C33.426 15.7644 31.5052 16.724 30.025 18.2042C28.5449 19.6845 27.5854 21.6053 27.2909 23.6779C27.1716 24.843 26.6532 25.931 25.8237 26.7575C24.9939 27.5843 23.9041 28.0986 22.7386 28.2135C20.6622 28.5108 18.7372 29.4702 17.2493 30.9489C15.7617 32.4276 14.7905 34.3468 14.4803 36.4215C14.3892 37.2485 14.1051 38.0427 13.651 38.74C11.9147 37.709 10.3597 36.3998 9.04802 34.8645ZM23.0432 41.397C21.3261 41.3989 19.617 41.1596 17.9664 40.6862C18.5311 39.6336 18.8981 38.4863 19.0494 37.3015C19.1681 36.139 19.684 35.053 20.5102 34.2268C21.3364 33.4006 22.4223 32.8846 23.5848 32.7659C25.6582 32.4696 27.5799 31.5099 29.0625 30.0302C30.545 28.5508 31.5088 26.6308 31.8093 24.558C31.9279 23.3955 32.4439 22.3095 33.2701 21.4833C34.0963 20.6571 35.1822 20.1411 36.3446 20.0224C37.9049 19.8195 39.3921 19.2385 40.6769 18.3301C41.3904 21.0343 41.4748 23.866 40.924 26.6079C40.3731 29.3499 39.2014 31.9294 37.499 34.1483C35.7965 36.367 33.6085 38.1664 31.1026 39.4083C28.5968 40.6502 25.8399 41.3016 23.0432 41.3124V41.397Z" fill="url(#paint0_linear_327_707)"/>
<defs>
<linearGradient id="paint0_linear_327_707" x1="20.5565" y1="0.0505371" x2="20.5565" y2="45.9495" gradientUnits="userSpaceOnUse">
<stop stop-color="white"/>
<stop offset="1" stop-color="#999999"/>
</linearGradient>
</defs>
</svg>
