<svg width="44" height="48" viewBox="0 0 44 48" fill="none" xmlns="http://www.w3.org/2000/svg">
<g clip-path="url(#clip0_327_730)">
<path fill-rule="evenodd" clip-rule="evenodd" d="M23.1727 8.40996C23.1727 7.35118 22.9263 6.30693 22.4527 5.35991C22.0434 4.54132 21.8031 3.64873 21.746 2.73529L21.6091 0.54541L21.4723 2.73521C21.4151 3.64866 21.1748 4.54128 20.7655 5.35989C20.292 6.30692 20.0455 7.3512 20.0455 8.41V39.5899C20.0455 40.6487 20.292 41.693 20.7655 42.6401C21.1748 43.4586 21.4151 44.3513 21.4723 45.2647L21.6091 47.4545L21.746 45.2646C21.8031 44.3512 22.0434 43.4586 22.4527 42.64C22.9263 41.693 23.1727 40.6488 23.1727 39.5899V8.40996ZM14.6345 8.48719C15.1081 9.4342 15.3545 10.4785 15.3545 11.5373V36.4626C15.3545 37.5215 15.1081 38.5657 14.6345 39.5128C14.2252 40.3314 13.9849 41.224 13.9277 42.1374L13.7909 44.3272L13.6541 42.1374C13.5969 41.224 13.3566 40.3314 12.9473 39.5128C12.4737 38.5657 12.2273 37.5215 12.2273 36.4626V11.5373C12.2273 10.4785 12.4737 9.4342 12.9473 8.48719C13.3566 7.66858 13.5969 6.77598 13.6541 5.86254L13.7909 3.67269L13.9277 5.86254C13.9849 6.77598 14.2252 7.66858 14.6345 8.48719ZM11.4455 14.6646C11.4455 13.6057 11.199 12.5615 10.7254 11.6145C10.3161 10.7958 10.0758 9.90324 10.0187 8.98979L9.88182 6.79995L9.74495 8.98979C9.68786 9.90324 9.44751 10.7958 9.03821 11.6145C8.5647 12.5615 8.31818 13.6057 8.31818 14.6646V33.3354C8.31818 34.3941 8.5647 35.4384 9.03821 36.3854C9.44751 37.2041 9.68786 38.0966 9.74495 39.0101L9.88182 41.2L10.0187 39.0101C10.0758 38.0966 10.3161 37.2041 10.7254 36.3854C11.199 35.4384 11.4455 34.3941 11.4455 33.3354V14.6646ZM6.81634 17.8689C7.28985 18.816 7.53636 19.8602 7.53636 20.9191V27.0808C7.53636 28.1396 7.28985 29.1839 6.81634 30.1309C6.40704 30.9495 6.16669 31.8421 6.10959 32.7555L5.97273 34.9454L5.83586 32.7555C5.77877 31.8421 5.53842 30.9495 5.12912 30.1309C4.65561 29.1839 4.40909 28.1396 4.40909 27.0808V20.9191C4.40909 19.8602 4.65561 18.816 5.12912 17.8689C5.53842 17.0504 5.77877 16.1577 5.83586 15.2444L5.97273 13.0545L6.10959 15.2444C6.16669 16.1577 6.40704 17.0504 6.81634 17.8689ZM3.62712 24L3.62727 24.0464V23.9535L3.62712 24ZM0.5 24.0464L0.500158 24C0.507251 25.0429 0.753433 26.0705 1.22003 27.0036C1.62933 27.8223 1.86968 28.7148 1.92677 29.6283L2.06364 31.8181L2.2005 29.6283C2.2576 28.7148 2.49795 27.8223 2.90725 27.0036C3.37384 26.0705 3.62002 25.0429 3.62712 24C3.62002 22.957 3.37384 21.9294 2.90725 20.9963C2.49795 20.1776 2.2576 19.2851 2.2005 18.3716L2.06364 16.1818L1.92677 18.3716C1.86968 19.2851 1.62933 20.1776 1.22003 20.9963C0.753433 21.9294 0.507251 22.957 0.500158 24L0.5 23.9535V24.0464ZM18.5436 5.35991C19.0172 6.30692 19.2636 7.35119 19.2636 8.40998V39.5899C19.2636 40.6488 19.0172 41.693 18.5436 42.64C18.1343 43.4586 17.894 44.3512 17.8368 45.2646L17.7 47.4545L17.5632 45.2646C17.506 44.3512 17.2657 43.4586 16.8564 42.64C16.3828 41.693 16.1364 40.6488 16.1364 39.5899V8.40998C16.1364 7.35119 16.3828 6.30692 16.8564 5.35991C17.2657 4.5413 17.506 3.64869 17.5632 2.73525L17.7 0.54541L17.8368 2.73525C17.894 3.64869 18.1343 4.5413 18.5436 5.35991ZM26.3618 5.35991C26.8353 6.30692 27.0818 7.35119 27.0818 8.40998V39.5899C27.0818 40.6488 26.8353 41.693 26.3618 42.64C25.9525 43.4586 25.7122 44.3512 25.655 45.2646L25.5182 47.4545L25.3814 45.2646C25.3242 44.3512 25.0839 43.4586 24.6746 42.64C24.201 41.693 23.9545 40.6488 23.9545 39.5899V8.40998C23.9545 7.35119 24.201 6.30692 24.6746 5.35991C25.0839 4.5413 25.3242 3.64869 25.3814 2.73525L25.5182 0.54541L25.655 2.73525C25.7122 3.64869 25.9525 4.5413 26.3618 5.35991ZM30.9909 11.5373C30.9909 10.4785 30.7444 9.4342 30.2709 8.48719C29.8616 7.66858 29.6213 6.77598 29.5641 5.86254L29.4273 3.67269L29.2905 5.86254C29.2333 6.77598 28.993 7.66858 28.5837 8.48719C28.1101 9.4342 27.8636 10.4785 27.8636 11.5373V36.4626C27.8636 37.5215 28.1101 38.5657 28.5837 39.5128C28.993 40.3314 29.2333 41.224 29.2905 42.1374L29.4273 44.3272L29.5641 42.1374C29.6213 41.224 29.8616 40.3314 30.2709 39.5128C30.7444 38.5657 30.9909 37.5215 30.9909 36.4626V11.5373ZM34.1799 11.6145C34.6535 12.5615 34.9 13.6057 34.9 14.6646V33.3354C34.9 34.3941 34.6535 35.4384 34.1799 36.3854C33.7707 37.2041 33.5304 38.0966 33.4732 39.0101L33.3364 41.2L33.1995 39.0101C33.1424 38.0966 32.9021 37.2041 32.4928 36.3854C32.0193 35.4384 31.7727 34.3941 31.7727 33.3354V14.6646C31.7727 13.6057 32.0193 12.5615 32.4928 11.6145C32.9021 10.7958 33.1424 9.90324 33.1995 8.98979L33.3364 6.79995L33.4732 8.98979C33.5304 9.90324 33.7707 10.7958 34.1799 11.6145ZM38.8091 20.9191C38.8091 19.8602 38.5626 18.816 38.089 17.8689C37.6798 17.0504 37.4394 16.1577 37.3823 15.2444L37.2455 13.0545L37.1086 15.2444C37.0515 16.1577 36.8112 17.0504 36.4019 17.8689C35.9284 18.816 35.6818 19.8602 35.6818 20.9191V27.0808C35.6818 28.1396 35.9284 29.1839 36.4019 30.1309C36.8112 30.9495 37.0515 31.8421 37.1086 32.7555L37.2455 34.9454L37.3823 32.7555C37.4394 31.8421 37.6798 30.9495 38.089 30.1309C38.5626 29.1839 38.8091 28.1396 38.8091 27.0808V20.9191ZM42.718 24C42.7181 24.0154 42.7182 24.0308 42.7182 24.0464V23.9535C42.7182 23.9691 42.7181 23.9845 42.718 24ZM39.5911 24C39.5981 25.0429 39.8443 26.0705 40.311 27.0036C40.7202 27.8223 40.9606 28.7148 41.0177 29.6283L41.1545 31.8181L41.2914 29.6283C41.3485 28.7148 41.5888 27.8223 41.9981 27.0036C42.4648 26.0705 42.7109 25.0429 42.718 24C42.7109 22.957 42.4648 21.9294 41.9981 20.9963C41.5888 20.1776 41.3485 19.2851 41.2914 18.3716L41.1545 16.1818L41.0177 18.3716C40.9606 19.2851 40.7202 20.1776 40.311 20.9963C39.8443 21.9294 39.5981 22.957 39.5911 24ZM39.5911 24C39.591 23.9845 39.5909 23.9691 39.5909 23.9535V24.0464C39.5909 24.0308 39.591 24.0154 39.5911 24Z" fill="url(#paint0_linear_327_730)"/>
</g>
<defs>
<linearGradient id="paint0_linear_327_730" x1="19.3604" y1="0.54541" x2="19.3604" y2="47.4545" gradientUnits="userSpaceOnUse">
<stop stop-color="white"/>
<stop offset="1" stop-color="#999999"/>
</linearGradient>
<clipPath id="clip0_327_730">
<rect width="43" height="48" fill="white" transform="translate(0.5)"/>
</clipPath>
</defs>
</svg>
